<svg width="276" height="28" viewBox="0 0 276 28" fill="none" xmlns="http://www.w3.org/2000/svg">
<path fill-rule="evenodd" clip-rule="evenodd" d="M276 0H0V22H134.536L138 28L141.464 22H276V0Z" fill="#FF4545"/>
<path d="M11.3839 6.768C11.4559 6.768 11.5199 6.792 11.5759 6.84C11.6239 6.896 11.6479 6.96 11.6479 7.032V14.736C11.6479 14.808 11.6239 14.868 11.5759 14.916C11.5199 14.972 11.4559 15 11.3839 15H10.2679C10.1959 15 10.1359 14.972 10.0879 14.916C10.0319 14.868 10.0039 14.808 10.0039 14.736V9.612L9.01988 11.172C8.97988 11.236 8.92388 11.292 8.85188 11.34C8.77188 11.38 8.69588 11.4 8.62388 11.4H8.09588C8.02388 11.4 7.94788 11.38 7.86788 11.34C7.79588 11.292 7.73988 11.236 7.69987 11.172L6.70388 9.6V14.736C6.70388 14.808 6.67988 14.868 6.63188 14.916C6.57588 14.972 6.51188 15 6.43988 15H5.32388C5.25188 15 5.19188 14.972 5.14388 14.916C5.08788 14.868 5.05988 14.808 5.05988 14.736V7.032C5.05988 6.96 5.08788 6.896 5.14388 6.84C5.19188 6.792 5.25188 6.768 5.32388 6.768H6.43988L6.52388 6.78C6.56388 6.788 6.60388 6.808 6.64388 6.84C6.72388 6.88 6.78388 6.932 6.82388 6.996L8.35988 9.648L9.89588 6.996C9.93588 6.932 9.99188 6.88 10.0639 6.84L10.1599 6.792C10.1919 6.776 10.2279 6.768 10.2679 6.768H11.3839ZM17.8431 6.768C17.9151 6.768 17.9831 6.792 18.0471 6.84C18.1191 6.888 18.1671 6.944 18.1911 7.008L19.9191 11.304C19.9431 11.368 19.9631 11.452 19.9791 11.556C20.0031 11.652 20.0151 11.736 20.0151 11.808V14.736C20.0151 14.808 19.9871 14.872 19.9311 14.928C19.8831 14.976 19.8231 15 19.7511 15H18.6231C18.5511 15 18.4871 14.976 18.4311 14.928C18.3831 14.872 18.3591 14.808 18.3591 14.736V13.356H15.0711V14.736C15.0711 14.808 15.0431 14.872 14.9871 14.928C14.9391 14.976 14.8791 15 14.8071 15H13.6911C13.6191 15 13.5551 14.976 13.4991 14.928C13.4511 14.872 13.4271 14.808 13.4271 14.736V11.808C13.4271 11.736 13.4351 11.652 13.4511 11.556C13.4751 11.452 13.4991 11.368 13.5231 11.304L15.2391 7.008C15.2711 6.944 15.3191 6.888 15.3831 6.84C15.4551 6.792 15.5271 6.768 15.5991 6.768H17.8431ZM15.1311 11.712H18.2991L16.9791 8.412H16.4511L15.1311 11.712ZM28.3823 8.952C28.3823 9.024 28.3623 9.104 28.3223 9.192C28.2823 9.272 28.2343 9.336 28.1783 9.384L26.3783 10.884L28.1783 12.396C28.2343 12.436 28.2823 12.5 28.3223 12.588C28.3623 12.668 28.3823 12.744 28.3823 12.816V14.748C28.3823 14.812 28.3543 14.872 28.2983 14.928C28.2503 14.976 28.1903 15 28.1183 15H26.9903C26.9183 15 26.8543 14.976 26.7983 14.928C26.7503 14.872 26.7263 14.812 26.7263 14.748V13.596C26.7263 13.524 26.7063 13.448 26.6663 13.368C26.6343 13.28 26.5903 13.212 26.5343 13.164L25.0823 11.964L23.6423 13.164C23.5863 13.212 23.5383 13.28 23.4983 13.368C23.4583 13.448 23.4383 13.524 23.4383 13.596V14.748C23.4383 14.812 23.4143 14.872 23.3663 14.928C23.3183 14.976 23.2583 15 23.1863 15H22.0583C21.9863 15 21.9223 14.976 21.8663 14.928C21.8183 14.872 21.7943 14.812 21.7943 14.748V12.816C21.7943 12.744 21.8103 12.668 21.8423 12.588C21.8823 12.5 21.9343 12.436 21.9983 12.396L23.7983 10.884L21.9983 9.384C21.9343 9.336 21.8823 9.272 21.8423 9.192C21.8103 9.104 21.7943 9.024 21.7943 8.952V7.032C21.7943 6.96 21.8183 6.9 21.8663 6.852C21.9223 6.796 21.9863 6.768 22.0583 6.768H23.1863C23.2583 6.768 23.3183 6.796 23.3663 6.852C23.4143 6.9 23.4383 6.96 23.4383 7.032V8.184C23.4383 8.256 23.4583 8.336 23.4983 8.424C23.5383 8.504 23.5863 8.568 23.6423 8.616L25.0823 9.816L26.5343 8.616C26.5903 8.568 26.6343 8.504 26.6663 8.424C26.7063 8.336 26.7263 8.256 26.7263 8.184V7.032C26.7263 6.96 26.7503 6.9 26.7983 6.852C26.8543 6.796 26.9183 6.768 26.9903 6.768H28.1183C28.1903 6.768 28.2503 6.796 28.2983 6.852C28.3543 6.9 28.3823 6.96 28.3823 7.032V8.952ZM42.9809 6.768C43.2689 6.768 43.5409 6.824 43.7969 6.936C44.0529 7.048 44.2769 7.2 44.4689 7.392C44.6609 7.584 44.8129 7.808 44.9249 8.064C45.0369 8.32 45.0929 8.596 45.0929 8.892V12.876C45.0929 13.172 45.0369 13.448 44.9249 13.704C44.8129 13.96 44.6609 14.184 44.4689 14.376C44.2769 14.568 44.0529 14.72 43.7969 14.832C43.5409 14.944 43.2689 15 42.9809 15H42.6329V15.888C42.6329 15.96 42.6049 16.02 42.5489 16.068C42.5009 16.124 42.4409 16.152 42.3689 16.152H41.2409C41.1689 16.152 41.1089 16.124 41.0609 16.068C41.0129 16.02 40.9889 15.96 40.9889 15.888V15H40.6289C40.3409 15 40.0689 14.944 39.8129 14.832C39.5569 14.72 39.3329 14.568 39.1409 14.376C38.9489 14.184 38.7969 13.96 38.6849 13.704C38.5729 13.448 38.5169 13.172 38.5169 12.876V8.892C38.5169 8.596 38.5729 8.32 38.6849 8.064C38.7969 7.808 38.9489 7.584 39.1409 7.392C39.3329 7.2 39.5569 7.048 39.8129 6.936C40.0689 6.824 40.3409 6.768 40.6289 6.768H42.9809ZM43.4489 8.892C43.4489 8.756 43.4049 8.644 43.3169 8.556C43.2289 8.46 43.1169 8.412 42.9809 8.412H40.6289C40.5009 8.412 40.3889 8.46 40.2929 8.556C40.2049 8.644 40.1609 8.756 40.1609 8.892V12.876C40.1609 13.012 40.2049 13.128 40.2929 13.224C40.3889 13.312 40.5009 13.356 40.6289 13.356H42.9809C43.1169 13.356 43.2289 13.312 43.3169 13.224C43.4049 13.128 43.4489 13.012 43.4489 12.876V8.892ZM48.9844 15C48.6964 15 48.4244 14.944 48.1684 14.832C47.9124 14.72 47.6884 14.568 47.4964 14.376C47.3044 14.184 47.1524 13.96 47.0404 13.704C46.9284 13.448 46.8724 13.172 46.8724 12.876V7.032C46.8724 6.96 46.8964 6.9 46.9444 6.852C47.0004 6.796 47.0644 6.768 47.1364 6.768H48.2524C48.3244 6.768 48.3844 6.796 48.4324 6.852C48.4884 6.9 48.5164 6.96 48.5164 7.032V12.876C48.5164 13.012 48.5604 13.128 48.6484 13.224C48.7444 13.312 48.8564 13.356 48.9844 13.356H51.3364C51.4724 13.356 51.5844 13.312 51.6724 13.224C51.7604 13.128 51.8044 13.012 51.8044 12.876V7.032C51.8044 6.96 51.8284 6.9 51.8764 6.852C51.9324 6.796 51.9964 6.768 52.0684 6.768H53.1964C53.2684 6.768 53.3284 6.796 53.3764 6.852C53.4324 6.9 53.4604 6.96 53.4604 7.032V12.876C53.4604 13.172 53.4044 13.448 53.2924 13.704C53.1804 13.96 53.0284 14.184 52.8364 14.376C52.6444 14.568 52.4164 14.72 52.1524 14.832C51.8964 14.944 51.6244 15 51.3364 15H48.9844ZM59.6556 6.768C59.7276 6.768 59.7956 6.792 59.8596 6.84C59.9316 6.888 59.9796 6.944 60.0036 7.008L61.7316 11.304C61.7556 11.368 61.7756 11.452 61.7916 11.556C61.8156 11.652 61.8276 11.736 61.8276 11.808V14.736C61.8276 14.808 61.7996 14.872 61.7436 14.928C61.6956 14.976 61.6356 15 61.5636 15H60.4356C60.3636 15 60.2996 14.976 60.2436 14.928C60.1956 14.872 60.1716 14.808 60.1716 14.736V13.356H56.8836V14.736C56.8836 14.808 56.8556 14.872 56.7996 14.928C56.7516 14.976 56.6916 15 56.6196 15H55.5036C55.4316 15 55.3676 14.976 55.3116 14.928C55.2636 14.872 55.2396 14.808 55.2396 14.736V11.808C55.2396 11.736 55.2476 11.652 55.2636 11.556C55.2876 11.452 55.3116 11.368 55.3356 11.304L57.0516 7.008C57.0836 6.944 57.1316 6.888 57.1956 6.84C57.2676 6.792 57.3396 6.768 57.4116 6.768H59.6556ZM56.9436 11.712H60.1116L58.7916 8.412H58.2636L56.9436 11.712ZM68.5388 7.032C68.5388 6.96 68.5628 6.9 68.6108 6.852C68.6668 6.796 68.7308 6.768 68.8028 6.768H69.9308C70.0028 6.768 70.0628 6.796 70.1108 6.852C70.1668 6.9 70.1948 6.96 70.1948 7.032V14.736C70.1948 14.808 70.1668 14.872 70.1108 14.928C70.0628 14.976 70.0028 15 69.9308 15H68.8028C68.7308 15 68.6668 14.976 68.6108 14.928C68.5628 14.872 68.5388 14.808 68.5388 14.736V11.928L65.2508 8.976V14.736C65.2508 14.808 65.2228 14.872 65.1668 14.928C65.1188 14.976 65.0588 15 64.9868 15H63.8708C63.7988 15 63.7348 14.976 63.6788 14.928C63.6308 14.872 63.6068 14.808 63.6068 14.736V7.032C63.6068 6.96 63.6308 6.9 63.6788 6.852C63.7348 6.796 63.7988 6.768 63.8708 6.768H64.9868C65.0588 6.768 65.1388 6.788 65.2268 6.828C65.3148 6.86 65.3868 6.9 65.4428 6.948L68.5388 9.72V7.032ZM78.2979 6.768C78.3699 6.768 78.4299 6.796 78.4779 6.852C78.5339 6.9 78.5619 6.96 78.5619 7.032V8.16C78.5619 8.232 78.5339 8.292 78.4779 8.34C78.4299 8.388 78.3699 8.412 78.2979 8.412H76.0899V14.736C76.0899 14.808 76.0619 14.872 76.0059 14.928C75.9579 14.976 75.8979 15 75.8259 15H74.6979C74.6259 15 74.5659 14.976 74.5179 14.928C74.4699 14.872 74.4459 14.808 74.4459 14.736V8.412H72.2379C72.1659 8.412 72.1019 8.388 72.0459 8.34C71.9979 8.292 71.9739 8.232 71.9739 8.16V7.032C71.9739 6.96 71.9979 6.9 72.0459 6.852C72.1019 6.796 72.1659 6.768 72.2379 6.768H78.2979ZM86.7731 8.16C86.7731 8.232 86.7451 8.292 86.6891 8.34C86.6411 8.388 86.5811 8.412 86.5091 8.412H84.4571V13.356H86.5091C86.5811 13.356 86.6411 13.384 86.6891 13.44C86.7451 13.488 86.7731 13.548 86.7731 13.62V14.736C86.7731 14.808 86.7451 14.872 86.6891 14.928C86.6411 14.976 86.5811 15 86.5091 15H80.7731C80.7011 15 80.6371 14.976 80.5811 14.928C80.5331 14.872 80.5091 14.808 80.5091 14.736V13.62C80.5091 13.548 80.5331 13.488 80.5811 13.44C80.6371 13.384 80.7011 13.356 80.7731 13.356H82.8131V8.412H80.7731C80.7011 8.412 80.6371 8.388 80.5811 8.34C80.5331 8.292 80.5091 8.232 80.5091 8.16V7.032C80.5091 6.96 80.5331 6.9 80.5811 6.852C80.6371 6.796 80.7011 6.768 80.7731 6.768H86.5091C86.5811 6.768 86.6411 6.796 86.6891 6.852C86.7451 6.9 86.7731 6.96 86.7731 7.032V8.16ZM95.0323 6.768C95.1043 6.768 95.1643 6.796 95.2123 6.852C95.2683 6.9 95.2963 6.96 95.2963 7.032V8.16C95.2963 8.232 95.2683 8.292 95.2123 8.34C95.1643 8.388 95.1043 8.412 95.0323 8.412H92.8243V14.736C92.8243 14.808 92.7963 14.872 92.7403 14.928C92.6923 14.976 92.6323 15 92.5603 15H91.4323C91.3603 15 91.3003 14.976 91.2523 14.928C91.2043 14.872 91.1803 14.808 91.1803 14.736V8.412H88.9723C88.9003 8.412 88.8363 8.388 88.7803 8.34C88.7323 8.292 88.7083 8.232 88.7083 8.16V7.032C88.7083 6.96 88.7323 6.9 88.7803 6.852C88.8363 6.796 88.9003 6.768 88.9723 6.768H95.0323ZM103.4 6.768C103.472 6.768 103.532 6.796 103.58 6.852C103.628 6.9 103.652 6.96 103.652 7.032V8.88C103.652 8.952 103.636 9.032 103.604 9.12C103.572 9.208 103.528 9.28 103.472 9.336L101.192 11.772V14.748C101.192 14.812 101.164 14.872 101.108 14.928C101.06 14.976 101 15 100.928 15H99.7995C99.7275 15 99.6635 14.976 99.6075 14.928C99.5595 14.872 99.5355 14.812 99.5355 14.748V11.772L97.2555 9.336C97.1995 9.28 97.1555 9.208 97.1235 9.12C97.0915 9.032 97.0755 8.952 97.0755 8.88V7.032C97.0755 6.96 97.0995 6.9 97.1475 6.852C97.1955 6.796 97.2555 6.768 97.3275 6.768H98.4555C98.5275 6.768 98.5875 6.796 98.6355 6.852C98.6915 6.9 98.7195 6.96 98.7195 7.032V8.232C98.7195 8.304 98.7355 8.384 98.7675 8.472C98.8075 8.56 98.8515 8.628 98.8995 8.676L100.364 10.236L101.828 8.676C101.876 8.628 101.916 8.56 101.948 8.472C101.988 8.384 102.008 8.304 102.008 8.232V7.032C102.008 6.96 102.032 6.9 102.08 6.852C102.136 6.796 102.2 6.768 102.272 6.768H103.4ZM108.155 15C108.083 15 108.019 14.976 107.963 14.928C107.915 14.88 107.891 14.82 107.891 14.748V13.62C107.891 13.548 107.915 13.488 107.963 13.44C108.019 13.384 108.083 13.356 108.155 13.356H109.283C109.355 13.356 109.415 13.384 109.463 13.44C109.519 13.488 109.547 13.548 109.547 13.62V14.748C109.547 14.82 109.519 14.88 109.463 14.928C109.415 14.976 109.355 15 109.283 15H108.155ZM128.574 8.16C128.574 8.232 128.546 8.292 128.49 8.34C128.442 8.388 128.382 8.412 128.31 8.412H126.258V13.356H128.31C128.382 13.356 128.442 13.384 128.49 13.44C128.546 13.488 128.574 13.548 128.574 13.62V14.736C128.574 14.808 128.546 14.872 128.49 14.928C128.442 14.976 128.382 15 128.31 15H122.574C122.502 15 122.438 14.976 122.382 14.928C122.334 14.872 122.31 14.808 122.31 14.736V13.62C122.31 13.548 122.334 13.488 122.382 13.44C122.438 13.384 122.502 13.356 122.574 13.356H124.614V8.412H122.574C122.502 8.412 122.438 8.388 122.382 8.34C122.334 8.292 122.31 8.232 122.31 8.16V7.032C122.31 6.96 122.334 6.9 122.382 6.852C122.438 6.796 122.502 6.768 122.574 6.768H128.31C128.382 6.768 128.442 6.796 128.49 6.852C128.546 6.9 128.574 6.96 128.574 7.032V8.16ZM135.441 7.032C135.441 6.96 135.465 6.9 135.513 6.852C135.569 6.796 135.633 6.768 135.705 6.768H136.833C136.905 6.768 136.965 6.796 137.013 6.852C137.069 6.9 137.097 6.96 137.097 7.032V14.736C137.097 14.808 137.069 14.872 137.013 14.928C136.965 14.976 136.905 15 136.833 15H135.705C135.633 15 135.569 14.976 135.513 14.928C135.465 14.872 135.441 14.808 135.441 14.736V11.928L132.153 8.976V14.736C132.153 14.808 132.125 14.872 132.069 14.928C132.021 14.976 131.961 15 131.889 15H130.773C130.701 15 130.637 14.976 130.581 14.928C130.533 14.872 130.509 14.808 130.509 14.736V7.032C130.509 6.96 130.533 6.9 130.581 6.852C130.637 6.796 130.701 6.768 130.773 6.768H131.889C131.961 6.768 132.041 6.788 132.129 6.828C132.217 6.86 132.289 6.9 132.345 6.948L135.441 9.72V7.032ZM144.072 9.24C144 9.24 143.936 9.216 143.88 9.168C143.832 9.112 143.808 9.048 143.808 8.976V8.892C143.808 8.756 143.764 8.644 143.676 8.556C143.588 8.46 143.476 8.412 143.34 8.412H140.988C140.86 8.412 140.748 8.46 140.652 8.556C140.564 8.644 140.52 8.756 140.52 8.892V9.588C140.52 9.724 140.564 9.84 140.652 9.936C140.748 10.024 140.86 10.068 140.988 10.068H143.34C143.628 10.068 143.9 10.124 144.156 10.236C144.412 10.348 144.636 10.5 144.828 10.692C145.02 10.884 145.172 11.108 145.284 11.364C145.396 11.62 145.452 11.892 145.452 12.18V12.876C145.452 13.172 145.396 13.448 145.284 13.704C145.172 13.96 145.02 14.184 144.828 14.376C144.636 14.568 144.412 14.72 144.156 14.832C143.9 14.944 143.628 15 143.34 15H140.988C140.7 15 140.428 14.944 140.172 14.832C139.916 14.72 139.692 14.568 139.5 14.376C139.308 14.184 139.156 13.96 139.044 13.704C138.932 13.448 138.876 13.172 138.876 12.876V12.792C138.876 12.72 138.9 12.66 138.948 12.612C139.004 12.556 139.068 12.528 139.14 12.528H140.256C140.328 12.528 140.388 12.556 140.436 12.612C140.492 12.66 140.52 12.72 140.52 12.792V12.876C140.52 13.012 140.564 13.128 140.652 13.224C140.748 13.312 140.86 13.356 140.988 13.356H143.34C143.476 13.356 143.588 13.312 143.676 13.224C143.764 13.128 143.808 13.012 143.808 12.876V12.18C143.808 12.044 143.764 11.932 143.676 11.844C143.588 11.756 143.476 11.712 143.34 11.712H140.988C140.7 11.712 140.428 11.656 140.172 11.544C139.916 11.432 139.692 11.28 139.5 11.088C139.308 10.896 139.156 10.672 139.044 10.416C138.932 10.152 138.876 9.876 138.876 9.588V8.892C138.876 8.596 138.932 8.32 139.044 8.064C139.156 7.808 139.308 7.584 139.5 7.392C139.692 7.2 139.916 7.048 140.172 6.936C140.428 6.824 140.7 6.768 140.988 6.768H143.34C143.628 6.768 143.9 6.824 144.156 6.936C144.412 7.048 144.636 7.2 144.828 7.392C145.02 7.584 145.172 7.808 145.284 8.064C145.396 8.32 145.452 8.596 145.452 8.892V8.976C145.452 9.048 145.428 9.112 145.38 9.168C145.332 9.216 145.272 9.24 145.2 9.24H144.072ZM149.355 15C149.067 15 148.795 14.944 148.539 14.832C148.283 14.72 148.059 14.568 147.867 14.376C147.675 14.184 147.523 13.96 147.411 13.704C147.299 13.448 147.243 13.172 147.243 12.876V7.032C147.243 6.96 147.267 6.9 147.315 6.852C147.371 6.796 147.435 6.768 147.507 6.768H148.623C148.695 6.768 148.755 6.796 148.803 6.852C148.859 6.9 148.887 6.96 148.887 7.032V12.876C148.887 13.012 148.931 13.128 149.019 13.224C149.115 13.312 149.227 13.356 149.355 13.356H151.707C151.843 13.356 151.955 13.312 152.043 13.224C152.131 13.128 152.175 13.012 152.175 12.876V7.032C152.175 6.96 152.199 6.9 152.247 6.852C152.303 6.796 152.367 6.768 152.439 6.768H153.567C153.639 6.768 153.699 6.796 153.747 6.852C153.803 6.9 153.831 6.96 153.831 7.032V12.876C153.831 13.172 153.775 13.448 153.663 13.704C153.551 13.96 153.399 14.184 153.207 14.376C153.015 14.568 152.787 14.72 152.523 14.832C152.267 14.944 151.995 15 151.707 15H149.355ZM162.199 8.16C162.199 8.232 162.171 8.292 162.115 8.34C162.067 8.388 162.007 8.412 161.935 8.412H157.447V10.068H161.527C161.599 10.068 161.659 10.092 161.707 10.14C161.763 10.188 161.791 10.248 161.791 10.32V11.448C161.791 11.52 161.763 11.584 161.707 11.64C161.659 11.688 161.599 11.712 161.527 11.712H157.447V14.736C157.447 14.808 157.419 14.872 157.363 14.928C157.315 14.976 157.255 15 157.183 15H156.055C155.983 15 155.919 14.976 155.863 14.928C155.815 14.872 155.791 14.808 155.791 14.736V7.032C155.791 6.96 155.815 6.9 155.863 6.852C155.919 6.796 155.983 6.768 156.055 6.768H161.935C162.007 6.768 162.067 6.796 162.115 6.852C162.171 6.9 162.199 6.96 162.199 7.032V8.16ZM170.566 8.16C170.566 8.232 170.538 8.292 170.482 8.34C170.434 8.388 170.374 8.412 170.302 8.412H165.814V10.068H169.894C169.966 10.068 170.026 10.092 170.074 10.14C170.13 10.188 170.158 10.248 170.158 10.32V11.448C170.158 11.52 170.13 11.584 170.074 11.64C170.026 11.688 169.966 11.712 169.894 11.712H165.814V14.736C165.814 14.808 165.786 14.872 165.73 14.928C165.682 14.976 165.622 15 165.55 15H164.422C164.35 15 164.286 14.976 164.23 14.928C164.182 14.872 164.158 14.808 164.158 14.736V7.032C164.158 6.96 164.182 6.9 164.23 6.852C164.286 6.796 164.35 6.768 164.422 6.768H170.302C170.374 6.768 170.434 6.796 170.482 6.852C170.538 6.9 170.566 6.96 170.566 7.032V8.16ZM178.777 8.16C178.777 8.232 178.749 8.292 178.693 8.34C178.645 8.388 178.585 8.412 178.513 8.412H176.461V13.356H178.513C178.585 13.356 178.645 13.384 178.693 13.44C178.749 13.488 178.777 13.548 178.777 13.62V14.736C178.777 14.808 178.749 14.872 178.693 14.928C178.645 14.976 178.585 15 178.513 15H172.777C172.705 15 172.641 14.976 172.585 14.928C172.537 14.872 172.513 14.808 172.513 14.736V13.62C172.513 13.548 172.537 13.488 172.585 13.44C172.641 13.384 172.705 13.356 172.777 13.356H174.817V8.412H172.777C172.705 8.412 172.641 8.388 172.585 8.34C172.537 8.292 172.513 8.232 172.513 8.16V7.032C172.513 6.96 172.537 6.9 172.585 6.852C172.641 6.796 172.705 6.768 172.777 6.768H178.513C178.585 6.768 178.645 6.796 178.693 6.852C178.749 6.9 178.777 6.96 178.777 7.032V8.16ZM185.92 9.24C185.848 9.24 185.784 9.216 185.728 9.168C185.68 9.112 185.656 9.048 185.656 8.976V8.892C185.656 8.756 185.608 8.644 185.512 8.556C185.424 8.46 185.312 8.412 185.176 8.412H182.836C182.7 8.412 182.588 8.46 182.5 8.556C182.412 8.644 182.368 8.756 182.368 8.892V12.876C182.368 13.012 182.412 13.128 182.5 13.224C182.588 13.312 182.7 13.356 182.836 13.356H185.176C185.312 13.356 185.424 13.312 185.512 13.224C185.608 13.128 185.656 13.012 185.656 12.876V12.792C185.656 12.72 185.68 12.66 185.728 12.612C185.784 12.556 185.848 12.528 185.92 12.528H187.036C187.108 12.528 187.168 12.556 187.216 12.612C187.272 12.66 187.3 12.72 187.3 12.792V12.876C187.3 13.172 187.244 13.448 187.132 13.704C187.02 13.96 186.868 14.184 186.676 14.376C186.484 14.568 186.26 14.72 186.004 14.832C185.748 14.944 185.472 15 185.176 15H182.836C182.548 15 182.272 14.944 182.008 14.832C181.752 14.72 181.528 14.568 181.336 14.376C181.144 14.184 180.992 13.96 180.88 13.704C180.768 13.448 180.712 13.172 180.712 12.876V8.892C180.712 8.596 180.768 8.32 180.88 8.064C180.992 7.808 181.144 7.584 181.336 7.392C181.528 7.2 181.752 7.048 182.008 6.936C182.272 6.824 182.548 6.768 182.836 6.768H185.176C185.472 6.768 185.748 6.824 186.004 6.936C186.26 7.048 186.484 7.2 186.676 7.392C186.868 7.584 187.02 7.808 187.132 8.064C187.244 8.32 187.3 8.596 187.3 8.892V8.976C187.3 9.048 187.272 9.112 187.216 9.168C187.168 9.216 187.108 9.24 187.036 9.24H185.92ZM195.511 8.16C195.511 8.232 195.483 8.292 195.427 8.34C195.379 8.388 195.319 8.412 195.247 8.412H193.195V13.356H195.247C195.319 13.356 195.379 13.384 195.427 13.44C195.483 13.488 195.511 13.548 195.511 13.62V14.736C195.511 14.808 195.483 14.872 195.427 14.928C195.379 14.976 195.319 15 195.247 15H189.511C189.439 15 189.375 14.976 189.319 14.928C189.271 14.872 189.247 14.808 189.247 14.736V13.62C189.247 13.548 189.271 13.488 189.319 13.44C189.375 13.384 189.439 13.356 189.511 13.356H191.551V8.412H189.511C189.439 8.412 189.375 8.388 189.319 8.34C189.271 8.292 189.247 8.232 189.247 8.16V7.032C189.247 6.96 189.271 6.9 189.319 6.852C189.375 6.796 189.439 6.768 189.511 6.768H195.247C195.319 6.768 195.379 6.796 195.427 6.852C195.483 6.9 195.511 6.96 195.511 7.032V8.16ZM203.903 8.16C203.903 8.232 203.879 8.292 203.831 8.34C203.783 8.388 203.723 8.412 203.651 8.412H199.211V10.068H203.231C203.303 10.068 203.363 10.092 203.411 10.14C203.467 10.188 203.495 10.248 203.495 10.32V11.448C203.495 11.52 203.467 11.584 203.411 11.64C203.363 11.688 203.303 11.712 203.231 11.712H199.211V13.356H203.651C203.723 13.356 203.783 13.384 203.831 13.44C203.879 13.488 203.903 13.548 203.903 13.62V14.736C203.903 14.808 203.879 14.872 203.831 14.928C203.783 14.976 203.723 15 203.651 15H197.819C197.747 15 197.687 14.976 197.639 14.928C197.591 14.872 197.567 14.808 197.567 14.736V7.032C197.567 6.96 197.591 6.9 197.639 6.852C197.687 6.796 197.747 6.768 197.819 6.768H203.651C203.723 6.768 203.783 6.796 203.831 6.852C203.879 6.9 203.903 6.96 203.903 7.032V8.16ZM210.734 7.032C210.734 6.96 210.758 6.9 210.806 6.852C210.862 6.796 210.926 6.768 210.998 6.768H212.126C212.198 6.768 212.258 6.796 212.306 6.852C212.362 6.9 212.39 6.96 212.39 7.032V14.736C212.39 14.808 212.362 14.872 212.306 14.928C212.258 14.976 212.198 15 212.126 15H210.998C210.926 15 210.862 14.976 210.806 14.928C210.758 14.872 210.734 14.808 210.734 14.736V11.928L207.446 8.976V14.736C207.446 14.808 207.418 14.872 207.362 14.928C207.314 14.976 207.254 15 207.182 15H206.066C205.994 15 205.93 14.976 205.874 14.928C205.826 14.872 205.802 14.808 205.802 14.736V7.032C205.802 6.96 205.826 6.9 205.874 6.852C205.93 6.796 205.994 6.768 206.066 6.768H207.182C207.254 6.768 207.334 6.788 207.422 6.828C207.51 6.86 207.582 6.9 207.638 6.948L210.734 9.72V7.032ZM220.493 6.768C220.565 6.768 220.625 6.796 220.673 6.852C220.729 6.9 220.757 6.96 220.757 7.032V8.16C220.757 8.232 220.729 8.292 220.673 8.34C220.625 8.388 220.565 8.412 220.493 8.412H218.285V14.736C218.285 14.808 218.257 14.872 218.201 14.928C218.153 14.976 218.093 15 218.021 15H216.893C216.821 15 216.761 14.976 216.713 14.928C216.665 14.872 216.641 14.808 216.641 14.736V8.412H214.433C214.361 8.412 214.297 8.388 214.241 8.34C214.193 8.292 214.169 8.232 214.169 8.16V7.032C214.169 6.96 214.193 6.9 214.241 6.852C214.297 6.796 214.361 6.768 214.433 6.768H220.493ZM236.088 9.24C236.016 9.24 235.956 9.216 235.908 9.168C235.86 9.112 235.836 9.052 235.836 8.988V8.892C235.836 8.756 235.788 8.644 235.692 8.556C235.604 8.468 235.492 8.424 235.356 8.424H233.016C232.88 8.424 232.764 8.468 232.668 8.556C232.58 8.644 232.536 8.756 232.536 8.892V9.588C232.536 9.724 232.58 9.84 232.668 9.936C232.764 10.024 232.88 10.068 233.016 10.068H235.356C235.652 10.068 235.928 10.124 236.184 10.236C236.44 10.348 236.664 10.5 236.856 10.692C237.048 10.884 237.2 11.108 237.312 11.364C237.424 11.62 237.48 11.892 237.48 12.18V12.888C237.48 13.176 237.424 13.448 237.312 13.704C237.2 13.96 237.048 14.184 236.856 14.376C236.664 14.568 236.44 14.72 236.184 14.832C235.928 14.944 235.652 15 235.356 15H235.008V15.792C235.008 15.864 234.984 15.924 234.936 15.972C234.888 16.028 234.828 16.056 234.756 16.056H233.628C233.556 16.056 233.492 16.028 233.436 15.972C233.388 15.924 233.364 15.864 233.364 15.792V15H233.016C232.728 15 232.452 14.944 232.188 14.832C231.932 14.72 231.708 14.568 231.516 14.376C231.324 14.184 231.172 13.96 231.06 13.704C230.948 13.448 230.892 13.176 230.892 12.888V12.792C230.892 12.72 230.916 12.66 230.964 12.612C231.02 12.556 231.084 12.528 231.156 12.528H232.284C232.356 12.528 232.416 12.556 232.464 12.612C232.512 12.66 232.536 12.72 232.536 12.792V12.888C232.536 13.016 232.58 13.128 232.668 13.224C232.764 13.312 232.88 13.356 233.016 13.356H235.356C235.492 13.356 235.604 13.312 235.692 13.224C235.788 13.128 235.836 13.016 235.836 12.888V12.18C235.836 12.052 235.788 11.944 235.692 11.856C235.604 11.76 235.492 11.712 235.356 11.712H233.016C232.728 11.712 232.452 11.656 232.188 11.544C231.932 11.432 231.708 11.28 231.516 11.088C231.324 10.896 231.172 10.672 231.06 10.416C230.948 10.16 230.892 9.884 230.892 9.588V8.892C230.892 8.604 230.948 8.332 231.06 8.076C231.172 7.812 231.324 7.584 231.516 7.392C231.708 7.2 231.932 7.048 232.188 6.936C232.452 6.824 232.728 6.768 233.016 6.768H233.364V5.988C233.364 5.916 233.388 5.856 233.436 5.808C233.492 5.752 233.556 5.724 233.628 5.724H234.756C234.828 5.724 234.888 5.752 234.936 5.808C234.984 5.856 235.008 5.916 235.008 5.988V6.768H235.356C235.652 6.768 235.928 6.824 236.184 6.936C236.44 7.048 236.664 7.2 236.856 7.392C237.048 7.584 237.2 7.812 237.312 8.076C237.424 8.332 237.48 8.604 237.48 8.892V8.988C237.48 9.052 237.452 9.112 237.396 9.168C237.348 9.216 237.288 9.24 237.216 9.24H236.088ZM243.723 6.78C244.019 6.78 244.295 6.836 244.551 6.948C244.807 7.06 245.031 7.212 245.223 7.404C245.415 7.596 245.567 7.82 245.679 8.076C245.791 8.332 245.847 8.604 245.847 8.892V12.888C245.847 13.176 245.791 13.448 245.679 13.704C245.567 13.96 245.415 14.184 245.223 14.376C245.031 14.568 244.807 14.72 244.551 14.832C244.295 14.944 244.019 15 243.723 15H241.383C241.087 15 240.811 14.944 240.555 14.832C240.299 14.72 240.075 14.568 239.883 14.376C239.691 14.184 239.539 13.96 239.427 13.704C239.315 13.448 239.259 13.176 239.259 12.888V8.892C239.259 8.604 239.315 8.332 239.427 8.076C239.539 7.82 239.691 7.596 239.883 7.404C240.075 7.212 240.299 7.06 240.555 6.948C240.811 6.836 241.087 6.78 241.383 6.78H243.723ZM244.203 8.892C244.203 8.756 244.155 8.644 244.059 8.556C243.971 8.468 243.859 8.424 243.723 8.424H241.383C241.247 8.424 241.131 8.468 241.035 8.556C240.947 8.644 240.903 8.756 240.903 8.892V12.888C240.903 13.024 240.947 13.136 241.035 13.224C241.131 13.312 241.247 13.356 241.383 13.356H243.723C243.859 13.356 243.971 13.312 244.059 13.224C244.155 13.136 244.203 13.024 244.203 12.888V8.892ZM254.214 8.952C254.214 9.024 254.194 9.104 254.154 9.192C254.114 9.272 254.066 9.336 254.01 9.384L252.21 10.884L254.01 12.396C254.066 12.436 254.114 12.5 254.154 12.588C254.194 12.668 254.214 12.744 254.214 12.816V14.748C254.214 14.812 254.186 14.872 254.13 14.928C254.082 14.976 254.022 15 253.95 15H252.822C252.75 15 252.686 14.976 252.63 14.928C252.582 14.872 252.558 14.812 252.558 14.748V13.596C252.558 13.524 252.538 13.448 252.498 13.368C252.466 13.28 252.422 13.212 252.366 13.164L250.914 11.964L249.474 13.164C249.418 13.212 249.37 13.28 249.33 13.368C249.29 13.448 249.27 13.524 249.27 13.596V14.748C249.27 14.812 249.246 14.872 249.198 14.928C249.15 14.976 249.09 15 249.018 15H247.89C247.818 15 247.754 14.976 247.698 14.928C247.65 14.872 247.626 14.812 247.626 14.748V12.816C247.626 12.744 247.642 12.668 247.674 12.588C247.714 12.5 247.766 12.436 247.83 12.396L249.63 10.884L247.83 9.384C247.766 9.336 247.714 9.272 247.674 9.192C247.642 9.104 247.626 9.024 247.626 8.952V7.032C247.626 6.96 247.65 6.9 247.698 6.852C247.754 6.796 247.818 6.768 247.89 6.768H249.018C249.09 6.768 249.15 6.796 249.198 6.852C249.246 6.9 249.27 6.96 249.27 7.032V8.184C249.27 8.256 249.29 8.336 249.33 8.424C249.37 8.504 249.418 8.568 249.474 8.616L250.914 9.816L252.366 8.616C252.422 8.568 252.466 8.504 252.498 8.424C252.538 8.336 252.558 8.256 252.558 8.184V7.032C252.558 6.96 252.582 6.9 252.63 6.852C252.686 6.796 252.75 6.768 252.822 6.768H253.95C254.022 6.768 254.082 6.796 254.13 6.852C254.186 6.9 254.214 6.96 254.214 7.032V8.952ZM260.925 8.892C260.925 8.756 260.877 8.644 260.781 8.556C260.693 8.46 260.585 8.412 260.457 8.412H258.105C257.977 8.412 257.865 8.46 257.769 8.556C257.681 8.644 257.637 8.756 257.637 8.892V12.876C257.637 13.012 257.681 13.128 257.769 13.224C257.865 13.312 257.977 13.356 258.105 13.356H260.457C260.585 13.356 260.693 13.312 260.781 13.224C260.877 13.128 260.925 13.012 260.925 12.876V11.712H259.545C259.473 11.712 259.409 11.688 259.353 11.64C259.305 11.584 259.281 11.52 259.281 11.448V10.32C259.281 10.248 259.305 10.188 259.353 10.14C259.409 10.092 259.473 10.068 259.545 10.068H262.317C262.389 10.068 262.449 10.092 262.497 10.14C262.545 10.188 262.569 10.248 262.569 10.32V12.876C262.569 13.172 262.513 13.448 262.401 13.704C262.289 13.96 262.137 14.184 261.945 14.376C261.753 14.568 261.529 14.72 261.273 14.832C261.017 14.944 260.745 15 260.457 15H258.105C257.817 15 257.545 14.944 257.289 14.832C257.033 14.72 256.809 14.568 256.617 14.376C256.425 14.184 256.273 13.96 256.161 13.704C256.049 13.448 255.993 13.172 255.993 12.876V8.892C255.993 8.596 256.049 8.32 256.161 8.064C256.273 7.808 256.425 7.584 256.617 7.392C256.809 7.2 257.033 7.048 257.289 6.936C257.545 6.824 257.817 6.768 258.105 6.768H260.457C260.745 6.768 261.017 6.824 261.273 6.936C261.529 7.048 261.753 7.2 261.945 7.392C262.137 7.584 262.289 7.808 262.401 8.064C262.513 8.32 262.569 8.596 262.569 8.892V8.976C262.569 9.048 262.545 9.112 262.497 9.168C262.449 9.216 262.389 9.24 262.317 9.24H261.189C261.117 9.24 261.053 9.216 260.997 9.168C260.949 9.112 260.925 9.048 260.925 8.976V8.892ZM269.281 7.032C269.281 6.96 269.305 6.9 269.353 6.852C269.409 6.796 269.473 6.768 269.545 6.768H270.673C270.745 6.768 270.805 6.796 270.853 6.852C270.909 6.9 270.937 6.96 270.937 7.032V14.736C270.937 14.808 270.909 14.872 270.853 14.928C270.805 14.976 270.745 15 270.673 15H269.545C269.473 15 269.409 14.976 269.353 14.928C269.305 14.872 269.281 14.808 269.281 14.736V11.928L265.993 8.976V14.736C265.993 14.808 265.965 14.872 265.909 14.928C265.861 14.976 265.801 15 265.729 15H264.613C264.541 15 264.477 14.976 264.421 14.928C264.373 14.872 264.349 14.808 264.349 14.736V7.032C264.349 6.96 264.373 6.9 264.421 6.852C264.477 6.796 264.541 6.768 264.613 6.768H265.729C265.801 6.768 265.881 6.788 265.969 6.828C266.057 6.86 266.129 6.9 266.185 6.948L269.281 9.72V7.032Z" fill="#2B2E45"/>
</svg>
