<svg width="276" height="28" viewBox="0 0 276 28" fill="none" xmlns="http://www.w3.org/2000/svg">
<path fill-rule="evenodd" clip-rule="evenodd" d="M276 0H0V22H134.536L138 28L141.464 22H276V0Z" fill="#FF4545"/>
<path d="M15.5675 6.768C15.6395 6.768 15.7035 6.792 15.7595 6.84C15.8075 6.896 15.8315 6.96 15.8315 7.032V14.736C15.8315 14.808 15.8075 14.868 15.7595 14.916C15.7035 14.972 15.6395 15 15.5675 15H14.4515C14.3795 15 14.3195 14.972 14.2715 14.916C14.2155 14.868 14.1875 14.808 14.1875 14.736V9.612L13.2035 11.172C13.1635 11.236 13.1075 11.292 13.0355 11.34C12.9555 11.38 12.8795 11.4 12.8075 11.4H12.2795C12.2075 11.4 12.1315 11.38 12.0515 11.34C11.9795 11.292 11.9235 11.236 11.8835 11.172L10.8875 9.6V14.736C10.8875 14.808 10.8635 14.868 10.8155 14.916C10.7595 14.972 10.6955 15 10.6235 15H9.50747C9.43547 15 9.37547 14.972 9.32747 14.916C9.27147 14.868 9.24347 14.808 9.24347 14.736V7.032C9.24347 6.96 9.27147 6.896 9.32747 6.84C9.37547 6.792 9.43547 6.768 9.50747 6.768H10.6235L10.7075 6.78C10.7475 6.788 10.7875 6.808 10.8275 6.84C10.9075 6.88 10.9675 6.932 11.0075 6.996L12.5435 9.648L14.0795 6.996C14.1195 6.932 14.1755 6.88 14.2475 6.84L14.3435 6.792C14.3755 6.776 14.4115 6.768 14.4515 6.768H15.5675ZM22.0267 6.768C22.0987 6.768 22.1667 6.792 22.2307 6.84C22.3027 6.888 22.3507 6.944 22.3747 7.008L24.1027 11.304C24.1267 11.368 24.1467 11.452 24.1627 11.556C24.1867 11.652 24.1987 11.736 24.1987 11.808V14.736C24.1987 14.808 24.1707 14.872 24.1147 14.928C24.0667 14.976 24.0067 15 23.9347 15H22.8067C22.7347 15 22.6707 14.976 22.6147 14.928C22.5667 14.872 22.5427 14.808 22.5427 14.736V13.356H19.2547V14.736C19.2547 14.808 19.2267 14.872 19.1707 14.928C19.1227 14.976 19.0627 15 18.9907 15H17.8747C17.8027 15 17.7387 14.976 17.6827 14.928C17.6347 14.872 17.6107 14.808 17.6107 14.736V11.808C17.6107 11.736 17.6187 11.652 17.6347 11.556C17.6587 11.452 17.6827 11.368 17.7067 11.304L19.4227 7.008C19.4547 6.944 19.5027 6.888 19.5667 6.84C19.6387 6.792 19.7107 6.768 19.7827 6.768H22.0267ZM19.3147 11.712H22.4827L21.1627 8.412H20.6347L19.3147 11.712ZM32.5658 8.952C32.5658 9.024 32.5458 9.104 32.5058 9.192C32.4658 9.272 32.4178 9.336 32.3618 9.384L30.5618 10.884L32.3618 12.396C32.4178 12.436 32.4658 12.5 32.5058 12.588C32.5458 12.668 32.5658 12.744 32.5658 12.816V14.748C32.5658 14.812 32.5378 14.872 32.4818 14.928C32.4338 14.976 32.3738 15 32.3018 15H31.1738C31.1018 15 31.0378 14.976 30.9818 14.928C30.9338 14.872 30.9098 14.812 30.9098 14.748V13.596C30.9098 13.524 30.8898 13.448 30.8498 13.368C30.8178 13.28 30.7738 13.212 30.7178 13.164L29.2658 11.964L27.8258 13.164C27.7698 13.212 27.7218 13.28 27.6818 13.368C27.6418 13.448 27.6218 13.524 27.6218 13.596V14.748C27.6218 14.812 27.5978 14.872 27.5498 14.928C27.5018 14.976 27.4418 15 27.3698 15H26.2418C26.1698 15 26.1058 14.976 26.0498 14.928C26.0018 14.872 25.9778 14.812 25.9778 14.748V12.816C25.9778 12.744 25.9938 12.668 26.0258 12.588C26.0658 12.5 26.1178 12.436 26.1818 12.396L27.9818 10.884L26.1818 9.384C26.1178 9.336 26.0658 9.272 26.0258 9.192C25.9938 9.104 25.9778 9.024 25.9778 8.952V7.032C25.9778 6.96 26.0018 6.9 26.0498 6.852C26.1058 6.796 26.1698 6.768 26.2418 6.768H27.3698C27.4418 6.768 27.5018 6.796 27.5498 6.852C27.5978 6.9 27.6218 6.96 27.6218 7.032V8.184C27.6218 8.256 27.6418 8.336 27.6818 8.424C27.7218 8.504 27.7698 8.568 27.8258 8.616L29.2658 9.816L30.7178 8.616C30.7738 8.568 30.8178 8.504 30.8498 8.424C30.8898 8.336 30.9098 8.256 30.9098 8.184V7.032C30.9098 6.96 30.9338 6.9 30.9818 6.852C31.0378 6.796 31.1018 6.768 31.1738 6.768H32.3018C32.3738 6.768 32.4338 6.796 32.4818 6.852C32.5378 6.9 32.5658 6.96 32.5658 7.032V8.952ZM47.1645 6.768C47.4525 6.768 47.7245 6.824 47.9805 6.936C48.2365 7.048 48.4605 7.2 48.6525 7.392C48.8445 7.584 48.9965 7.808 49.1085 8.064C49.2205 8.32 49.2765 8.596 49.2765 8.892V12.876C49.2765 13.172 49.2205 13.448 49.1085 13.704C48.9965 13.96 48.8445 14.184 48.6525 14.376C48.4605 14.568 48.2365 14.72 47.9805 14.832C47.7245 14.944 47.4525 15 47.1645 15H46.8165V15.888C46.8165 15.96 46.7885 16.02 46.7325 16.068C46.6845 16.124 46.6245 16.152 46.5525 16.152H45.4245C45.3525 16.152 45.2925 16.124 45.2445 16.068C45.1965 16.02 45.1725 15.96 45.1725 15.888V15H44.8125C44.5245 15 44.2525 14.944 43.9965 14.832C43.7405 14.72 43.5165 14.568 43.3245 14.376C43.1325 14.184 42.9805 13.96 42.8685 13.704C42.7565 13.448 42.7005 13.172 42.7005 12.876V8.892C42.7005 8.596 42.7565 8.32 42.8685 8.064C42.9805 7.808 43.1325 7.584 43.3245 7.392C43.5165 7.2 43.7405 7.048 43.9965 6.936C44.2525 6.824 44.5245 6.768 44.8125 6.768H47.1645ZM47.6325 8.892C47.6325 8.756 47.5885 8.644 47.5005 8.556C47.4125 8.46 47.3005 8.412 47.1645 8.412H44.8125C44.6845 8.412 44.5725 8.46 44.4765 8.556C44.3885 8.644 44.3445 8.756 44.3445 8.892V12.876C44.3445 13.012 44.3885 13.128 44.4765 13.224C44.5725 13.312 44.6845 13.356 44.8125 13.356H47.1645C47.3005 13.356 47.4125 13.312 47.5005 13.224C47.5885 13.128 47.6325 13.012 47.6325 12.876V8.892ZM53.168 15C52.88 15 52.608 14.944 52.352 14.832C52.096 14.72 51.872 14.568 51.68 14.376C51.488 14.184 51.336 13.96 51.224 13.704C51.112 13.448 51.056 13.172 51.056 12.876V7.032C51.056 6.96 51.08 6.9 51.128 6.852C51.184 6.796 51.248 6.768 51.32 6.768H52.436C52.508 6.768 52.568 6.796 52.616 6.852C52.672 6.9 52.7 6.96 52.7 7.032V12.876C52.7 13.012 52.744 13.128 52.832 13.224C52.928 13.312 53.04 13.356 53.168 13.356H55.52C55.656 13.356 55.768 13.312 55.856 13.224C55.944 13.128 55.988 13.012 55.988 12.876V7.032C55.988 6.96 56.012 6.9 56.06 6.852C56.116 6.796 56.18 6.768 56.252 6.768H57.38C57.452 6.768 57.512 6.796 57.56 6.852C57.616 6.9 57.644 6.96 57.644 7.032V12.876C57.644 13.172 57.588 13.448 57.476 13.704C57.364 13.96 57.212 14.184 57.02 14.376C56.828 14.568 56.6 14.72 56.336 14.832C56.08 14.944 55.808 15 55.52 15H53.168ZM63.8392 6.768C63.9112 6.768 63.9792 6.792 64.0432 6.84C64.1152 6.888 64.1632 6.944 64.1872 7.008L65.9152 11.304C65.9392 11.368 65.9592 11.452 65.9752 11.556C65.9992 11.652 66.0112 11.736 66.0112 11.808V14.736C66.0112 14.808 65.9832 14.872 65.9272 14.928C65.8792 14.976 65.8192 15 65.7472 15H64.6192C64.5472 15 64.4832 14.976 64.4272 14.928C64.3792 14.872 64.3552 14.808 64.3552 14.736V13.356H61.0672V14.736C61.0672 14.808 61.0392 14.872 60.9832 14.928C60.9352 14.976 60.8752 15 60.8032 15H59.6872C59.6152 15 59.5512 14.976 59.4952 14.928C59.4472 14.872 59.4232 14.808 59.4232 14.736V11.808C59.4232 11.736 59.4312 11.652 59.4472 11.556C59.4712 11.452 59.4952 11.368 59.5192 11.304L61.2352 7.008C61.2672 6.944 61.3152 6.888 61.3792 6.84C61.4512 6.792 61.5232 6.768 61.5952 6.768H63.8392ZM61.1272 11.712H64.2952L62.9752 8.412H62.4472L61.1272 11.712ZM72.7223 7.032C72.7223 6.96 72.7463 6.9 72.7943 6.852C72.8503 6.796 72.9143 6.768 72.9863 6.768H74.1143C74.1863 6.768 74.2463 6.796 74.2943 6.852C74.3503 6.9 74.3783 6.96 74.3783 7.032V14.736C74.3783 14.808 74.3503 14.872 74.2943 14.928C74.2463 14.976 74.1863 15 74.1143 15H72.9863C72.9143 15 72.8503 14.976 72.7943 14.928C72.7463 14.872 72.7223 14.808 72.7223 14.736V11.928L69.4343 8.976V14.736C69.4343 14.808 69.4063 14.872 69.3503 14.928C69.3023 14.976 69.2423 15 69.1703 15H68.0543C67.9823 15 67.9183 14.976 67.8623 14.928C67.8143 14.872 67.7903 14.808 67.7903 14.736V7.032C67.7903 6.96 67.8143 6.9 67.8623 6.852C67.9183 6.796 67.9823 6.768 68.0543 6.768H69.1703C69.2423 6.768 69.3223 6.788 69.4103 6.828C69.4983 6.86 69.5703 6.9 69.6263 6.948L72.7223 9.72V7.032ZM82.4815 6.768C82.5535 6.768 82.6135 6.796 82.6615 6.852C82.7175 6.9 82.7455 6.96 82.7455 7.032V8.16C82.7455 8.232 82.7175 8.292 82.6615 8.34C82.6135 8.388 82.5535 8.412 82.4815 8.412H80.2735V14.736C80.2735 14.808 80.2455 14.872 80.1895 14.928C80.1415 14.976 80.0815 15 80.0095 15H78.8815C78.8095 15 78.7495 14.976 78.7015 14.928C78.6535 14.872 78.6295 14.808 78.6295 14.736V8.412H76.4215C76.3495 8.412 76.2855 8.388 76.2295 8.34C76.1815 8.292 76.1575 8.232 76.1575 8.16V7.032C76.1575 6.96 76.1815 6.9 76.2295 6.852C76.2855 6.796 76.3495 6.768 76.4215 6.768H82.4815ZM90.9567 8.16C90.9567 8.232 90.9287 8.292 90.8727 8.34C90.8247 8.388 90.7647 8.412 90.6927 8.412H88.6407V13.356H90.6927C90.7647 13.356 90.8247 13.384 90.8727 13.44C90.9287 13.488 90.9567 13.548 90.9567 13.62V14.736C90.9567 14.808 90.9287 14.872 90.8727 14.928C90.8247 14.976 90.7647 15 90.6927 15H84.9567C84.8847 15 84.8207 14.976 84.7647 14.928C84.7167 14.872 84.6927 14.808 84.6927 14.736V13.62C84.6927 13.548 84.7167 13.488 84.7647 13.44C84.8207 13.384 84.8847 13.356 84.9567 13.356H86.9967V8.412H84.9567C84.8847 8.412 84.8207 8.388 84.7647 8.34C84.7167 8.292 84.6927 8.232 84.6927 8.16V7.032C84.6927 6.96 84.7167 6.9 84.7647 6.852C84.8207 6.796 84.8847 6.768 84.9567 6.768H90.6927C90.7647 6.768 90.8247 6.796 90.8727 6.852C90.9287 6.9 90.9567 6.96 90.9567 7.032V8.16ZM99.2159 6.768C99.2879 6.768 99.3479 6.796 99.3959 6.852C99.4519 6.9 99.4799 6.96 99.4799 7.032V8.16C99.4799 8.232 99.4519 8.292 99.3959 8.34C99.3479 8.388 99.2879 8.412 99.2159 8.412H97.0079V14.736C97.0079 14.808 96.9799 14.872 96.9239 14.928C96.8759 14.976 96.8159 15 96.7439 15H95.6159C95.5439 15 95.4839 14.976 95.4359 14.928C95.3879 14.872 95.3639 14.808 95.3639 14.736V8.412H93.1559C93.0839 8.412 93.0199 8.388 92.9639 8.34C92.9159 8.292 92.8919 8.232 92.8919 8.16V7.032C92.8919 6.96 92.9159 6.9 92.9639 6.852C93.0199 6.796 93.0839 6.768 93.1559 6.768H99.2159ZM107.583 6.768C107.655 6.768 107.715 6.796 107.763 6.852C107.811 6.9 107.835 6.96 107.835 7.032V8.88C107.835 8.952 107.819 9.032 107.787 9.12C107.755 9.208 107.711 9.28 107.655 9.336L105.375 11.772V14.748C105.375 14.812 105.347 14.872 105.291 14.928C105.243 14.976 105.183 15 105.111 15H103.983C103.911 15 103.847 14.976 103.791 14.928C103.743 14.872 103.719 14.812 103.719 14.748V11.772L101.439 9.336C101.383 9.28 101.339 9.208 101.307 9.12C101.275 9.032 101.259 8.952 101.259 8.88V7.032C101.259 6.96 101.283 6.9 101.331 6.852C101.379 6.796 101.439 6.768 101.511 6.768H102.639C102.711 6.768 102.771 6.796 102.819 6.852C102.875 6.9 102.903 6.96 102.903 7.032V8.232C102.903 8.304 102.919 8.384 102.951 8.472C102.991 8.56 103.035 8.628 103.083 8.676L104.547 10.236L106.011 8.676C106.059 8.628 106.099 8.56 106.131 8.472C106.171 8.384 106.191 8.304 106.191 8.232V7.032C106.191 6.96 106.215 6.9 106.263 6.852C106.319 6.796 106.383 6.768 106.455 6.768H107.583ZM112.339 15C112.267 15 112.203 14.976 112.147 14.928C112.099 14.88 112.075 14.82 112.075 14.748V13.62C112.075 13.548 112.099 13.488 112.147 13.44C112.203 13.384 112.267 13.356 112.339 13.356H113.467C113.539 13.356 113.599 13.384 113.647 13.44C113.703 13.488 113.731 13.548 113.731 13.62V14.748C113.731 14.82 113.703 14.88 113.647 14.928C113.599 14.976 113.539 15 113.467 15H112.339ZM132.758 8.16C132.758 8.232 132.73 8.292 132.674 8.34C132.626 8.388 132.566 8.412 132.493 8.412H130.442V13.356H132.493C132.566 13.356 132.626 13.384 132.674 13.44C132.73 13.488 132.758 13.548 132.758 13.62V14.736C132.758 14.808 132.73 14.872 132.674 14.928C132.626 14.976 132.566 15 132.493 15H126.758C126.686 15 126.622 14.976 126.566 14.928C126.518 14.872 126.494 14.808 126.494 14.736V13.62C126.494 13.548 126.518 13.488 126.566 13.44C126.622 13.384 126.686 13.356 126.758 13.356H128.798V8.412H126.758C126.686 8.412 126.622 8.388 126.566 8.34C126.518 8.292 126.494 8.232 126.494 8.16V7.032C126.494 6.96 126.518 6.9 126.566 6.852C126.622 6.796 126.686 6.768 126.758 6.768H132.493C132.566 6.768 132.626 6.796 132.674 6.852C132.73 6.9 132.758 6.96 132.758 7.032V8.16ZM139.625 7.032C139.625 6.96 139.649 6.9 139.697 6.852C139.753 6.796 139.817 6.768 139.889 6.768H141.017C141.089 6.768 141.149 6.796 141.197 6.852C141.253 6.9 141.281 6.96 141.281 7.032V14.736C141.281 14.808 141.253 14.872 141.197 14.928C141.149 14.976 141.089 15 141.017 15H139.889C139.817 15 139.753 14.976 139.697 14.928C139.649 14.872 139.625 14.808 139.625 14.736V11.928L136.337 8.976V14.736C136.337 14.808 136.309 14.872 136.253 14.928C136.205 14.976 136.145 15 136.073 15H134.957C134.885 15 134.821 14.976 134.765 14.928C134.717 14.872 134.693 14.808 134.693 14.736V7.032C134.693 6.96 134.717 6.9 134.765 6.852C134.821 6.796 134.885 6.768 134.957 6.768H136.073C136.145 6.768 136.225 6.788 136.313 6.828C136.401 6.86 136.473 6.9 136.529 6.948L139.625 9.72V7.032ZM148.256 9.24C148.184 9.24 148.12 9.216 148.064 9.168C148.016 9.112 147.992 9.048 147.992 8.976V8.892C147.992 8.756 147.948 8.644 147.86 8.556C147.772 8.46 147.66 8.412 147.524 8.412H145.172C145.044 8.412 144.932 8.46 144.836 8.556C144.748 8.644 144.704 8.756 144.704 8.892V9.588C144.704 9.724 144.748 9.84 144.836 9.936C144.932 10.024 145.044 10.068 145.172 10.068H147.524C147.812 10.068 148.084 10.124 148.34 10.236C148.596 10.348 148.82 10.5 149.012 10.692C149.204 10.884 149.356 11.108 149.468 11.364C149.58 11.62 149.636 11.892 149.636 12.18V12.876C149.636 13.172 149.58 13.448 149.468 13.704C149.356 13.96 149.204 14.184 149.012 14.376C148.82 14.568 148.596 14.72 148.34 14.832C148.084 14.944 147.812 15 147.524 15H145.172C144.884 15 144.612 14.944 144.356 14.832C144.1 14.72 143.876 14.568 143.684 14.376C143.492 14.184 143.34 13.96 143.228 13.704C143.116 13.448 143.06 13.172 143.06 12.876V12.792C143.06 12.72 143.084 12.66 143.132 12.612C143.188 12.556 143.252 12.528 143.324 12.528H144.44C144.512 12.528 144.572 12.556 144.62 12.612C144.676 12.66 144.704 12.72 144.704 12.792V12.876C144.704 13.012 144.748 13.128 144.836 13.224C144.932 13.312 145.044 13.356 145.172 13.356H147.524C147.66 13.356 147.772 13.312 147.86 13.224C147.948 13.128 147.992 13.012 147.992 12.876V12.18C147.992 12.044 147.948 11.932 147.86 11.844C147.772 11.756 147.66 11.712 147.524 11.712H145.172C144.884 11.712 144.612 11.656 144.356 11.544C144.1 11.432 143.876 11.28 143.684 11.088C143.492 10.896 143.34 10.672 143.228 10.416C143.116 10.152 143.06 9.876 143.06 9.588V8.892C143.06 8.596 143.116 8.32 143.228 8.064C143.34 7.808 143.492 7.584 143.684 7.392C143.876 7.2 144.1 7.048 144.356 6.936C144.612 6.824 144.884 6.768 145.172 6.768H147.524C147.812 6.768 148.084 6.824 148.34 6.936C148.596 7.048 148.82 7.2 149.012 7.392C149.204 7.584 149.356 7.808 149.468 8.064C149.58 8.32 149.636 8.596 149.636 8.892V8.976C149.636 9.048 149.612 9.112 149.564 9.168C149.516 9.216 149.456 9.24 149.384 9.24H148.256ZM153.539 15C153.251 15 152.979 14.944 152.723 14.832C152.467 14.72 152.243 14.568 152.051 14.376C151.859 14.184 151.707 13.96 151.595 13.704C151.483 13.448 151.427 13.172 151.427 12.876V7.032C151.427 6.96 151.451 6.9 151.499 6.852C151.555 6.796 151.619 6.768 151.691 6.768H152.807C152.879 6.768 152.939 6.796 152.987 6.852C153.043 6.9 153.071 6.96 153.071 7.032V12.876C153.071 13.012 153.115 13.128 153.203 13.224C153.299 13.312 153.411 13.356 153.539 13.356H155.891C156.027 13.356 156.139 13.312 156.227 13.224C156.315 13.128 156.359 13.012 156.359 12.876V7.032C156.359 6.96 156.383 6.9 156.431 6.852C156.487 6.796 156.551 6.768 156.623 6.768H157.751C157.823 6.768 157.883 6.796 157.931 6.852C157.987 6.9 158.015 6.96 158.015 7.032V12.876C158.015 13.172 157.959 13.448 157.847 13.704C157.735 13.96 157.583 14.184 157.391 14.376C157.199 14.568 156.971 14.72 156.707 14.832C156.451 14.944 156.179 15 155.891 15H153.539ZM166.382 8.16C166.382 8.232 166.354 8.292 166.298 8.34C166.25 8.388 166.19 8.412 166.118 8.412H161.63V10.068H165.71C165.782 10.068 165.842 10.092 165.89 10.14C165.946 10.188 165.974 10.248 165.974 10.32V11.448C165.974 11.52 165.946 11.584 165.89 11.64C165.842 11.688 165.782 11.712 165.71 11.712H161.63V14.736C161.63 14.808 161.602 14.872 161.546 14.928C161.498 14.976 161.438 15 161.366 15H160.238C160.166 15 160.102 14.976 160.046 14.928C159.998 14.872 159.974 14.808 159.974 14.736V7.032C159.974 6.96 159.998 6.9 160.046 6.852C160.102 6.796 160.166 6.768 160.238 6.768H166.118C166.19 6.768 166.25 6.796 166.298 6.852C166.354 6.9 166.382 6.96 166.382 7.032V8.16ZM174.749 8.16C174.749 8.232 174.721 8.292 174.665 8.34C174.617 8.388 174.557 8.412 174.485 8.412H169.997V10.068H174.077C174.149 10.068 174.209 10.092 174.257 10.14C174.313 10.188 174.341 10.248 174.341 10.32V11.448C174.341 11.52 174.313 11.584 174.257 11.64C174.209 11.688 174.149 11.712 174.077 11.712H169.997V14.736C169.997 14.808 169.969 14.872 169.913 14.928C169.865 14.976 169.805 15 169.733 15H168.605C168.533 15 168.469 14.976 168.413 14.928C168.365 14.872 168.341 14.808 168.341 14.736V7.032C168.341 6.96 168.365 6.9 168.413 6.852C168.469 6.796 168.533 6.768 168.605 6.768H174.485C174.557 6.768 174.617 6.796 174.665 6.852C174.721 6.9 174.749 6.96 174.749 7.032V8.16ZM182.961 8.16C182.961 8.232 182.933 8.292 182.877 8.34C182.829 8.388 182.769 8.412 182.697 8.412H180.645V13.356H182.697C182.769 13.356 182.829 13.384 182.877 13.44C182.933 13.488 182.961 13.548 182.961 13.62V14.736C182.961 14.808 182.933 14.872 182.877 14.928C182.829 14.976 182.769 15 182.697 15H176.961C176.889 15 176.825 14.976 176.769 14.928C176.721 14.872 176.697 14.808 176.697 14.736V13.62C176.697 13.548 176.721 13.488 176.769 13.44C176.825 13.384 176.889 13.356 176.961 13.356H179.001V8.412H176.961C176.889 8.412 176.825 8.388 176.769 8.34C176.721 8.292 176.697 8.232 176.697 8.16V7.032C176.697 6.96 176.721 6.9 176.769 6.852C176.825 6.796 176.889 6.768 176.961 6.768H182.697C182.769 6.768 182.829 6.796 182.877 6.852C182.933 6.9 182.961 6.96 182.961 7.032V8.16ZM190.104 9.24C190.032 9.24 189.968 9.216 189.912 9.168C189.864 9.112 189.84 9.048 189.84 8.976V8.892C189.84 8.756 189.792 8.644 189.696 8.556C189.608 8.46 189.496 8.412 189.36 8.412H187.02C186.884 8.412 186.772 8.46 186.684 8.556C186.596 8.644 186.552 8.756 186.552 8.892V12.876C186.552 13.012 186.596 13.128 186.684 13.224C186.772 13.312 186.884 13.356 187.02 13.356H189.36C189.496 13.356 189.608 13.312 189.696 13.224C189.792 13.128 189.84 13.012 189.84 12.876V12.792C189.84 12.72 189.864 12.66 189.912 12.612C189.968 12.556 190.032 12.528 190.104 12.528H191.22C191.292 12.528 191.352 12.556 191.4 12.612C191.456 12.66 191.484 12.72 191.484 12.792V12.876C191.484 13.172 191.428 13.448 191.316 13.704C191.204 13.96 191.052 14.184 190.86 14.376C190.668 14.568 190.444 14.72 190.188 14.832C189.932 14.944 189.656 15 189.36 15H187.02C186.732 15 186.456 14.944 186.192 14.832C185.936 14.72 185.712 14.568 185.52 14.376C185.328 14.184 185.176 13.96 185.064 13.704C184.952 13.448 184.896 13.172 184.896 12.876V8.892C184.896 8.596 184.952 8.32 185.064 8.064C185.176 7.808 185.328 7.584 185.52 7.392C185.712 7.2 185.936 7.048 186.192 6.936C186.456 6.824 186.732 6.768 187.02 6.768H189.36C189.656 6.768 189.932 6.824 190.188 6.936C190.444 7.048 190.668 7.2 190.86 7.392C191.052 7.584 191.204 7.808 191.316 8.064C191.428 8.32 191.484 8.596 191.484 8.892V8.976C191.484 9.048 191.456 9.112 191.4 9.168C191.352 9.216 191.292 9.24 191.22 9.24H190.104ZM199.695 8.16C199.695 8.232 199.667 8.292 199.611 8.34C199.563 8.388 199.503 8.412 199.431 8.412H197.379V13.356H199.431C199.503 13.356 199.563 13.384 199.611 13.44C199.667 13.488 199.695 13.548 199.695 13.62V14.736C199.695 14.808 199.667 14.872 199.611 14.928C199.563 14.976 199.503 15 199.431 15H193.695C193.623 15 193.559 14.976 193.503 14.928C193.455 14.872 193.431 14.808 193.431 14.736V13.62C193.431 13.548 193.455 13.488 193.503 13.44C193.559 13.384 193.623 13.356 193.695 13.356H195.735V8.412H193.695C193.623 8.412 193.559 8.388 193.503 8.34C193.455 8.292 193.431 8.232 193.431 8.16V7.032C193.431 6.96 193.455 6.9 193.503 6.852C193.559 6.796 193.623 6.768 193.695 6.768H199.431C199.503 6.768 199.563 6.796 199.611 6.852C199.667 6.9 199.695 6.96 199.695 7.032V8.16ZM208.086 8.16C208.086 8.232 208.062 8.292 208.014 8.34C207.966 8.388 207.906 8.412 207.834 8.412H203.394V10.068H207.414C207.486 10.068 207.546 10.092 207.594 10.14C207.65 10.188 207.678 10.248 207.678 10.32V11.448C207.678 11.52 207.65 11.584 207.594 11.64C207.546 11.688 207.486 11.712 207.414 11.712H203.394V13.356H207.834C207.906 13.356 207.966 13.384 208.014 13.44C208.062 13.488 208.086 13.548 208.086 13.62V14.736C208.086 14.808 208.062 14.872 208.014 14.928C207.966 14.976 207.906 15 207.834 15H202.002C201.93 15 201.87 14.976 201.822 14.928C201.774 14.872 201.75 14.808 201.75 14.736V7.032C201.75 6.96 201.774 6.9 201.822 6.852C201.87 6.796 201.93 6.768 202.002 6.768H207.834C207.906 6.768 207.966 6.796 208.014 6.852C208.062 6.9 208.086 6.96 208.086 7.032V8.16ZM214.918 7.032C214.918 6.96 214.942 6.9 214.99 6.852C215.046 6.796 215.11 6.768 215.182 6.768H216.31C216.382 6.768 216.442 6.796 216.49 6.852C216.546 6.9 216.574 6.96 216.574 7.032V14.736C216.574 14.808 216.546 14.872 216.49 14.928C216.442 14.976 216.382 15 216.31 15H215.182C215.11 15 215.046 14.976 214.99 14.928C214.942 14.872 214.918 14.808 214.918 14.736V11.928L211.63 8.976V14.736C211.63 14.808 211.602 14.872 211.546 14.928C211.498 14.976 211.438 15 211.366 15H210.25C210.178 15 210.114 14.976 210.058 14.928C210.01 14.872 209.986 14.808 209.986 14.736V7.032C209.986 6.96 210.01 6.9 210.058 6.852C210.114 6.796 210.178 6.768 210.25 6.768H211.366C211.438 6.768 211.518 6.788 211.606 6.828C211.694 6.86 211.766 6.9 211.822 6.948L214.918 9.72V7.032ZM224.677 6.768C224.749 6.768 224.809 6.796 224.857 6.852C224.913 6.9 224.941 6.96 224.941 7.032V8.16C224.941 8.232 224.913 8.292 224.857 8.34C224.809 8.388 224.749 8.412 224.677 8.412H222.469V14.736C222.469 14.808 222.441 14.872 222.385 14.928C222.337 14.976 222.277 15 222.205 15H221.077C221.005 15 220.945 14.976 220.897 14.928C220.849 14.872 220.825 14.808 220.825 14.736V8.412H218.617C218.545 8.412 218.481 8.388 218.425 8.34C218.377 8.292 218.353 8.232 218.353 8.16V7.032C218.353 6.96 218.377 6.9 218.425 6.852C218.481 6.796 218.545 6.768 218.617 6.768H224.677ZM239.54 6.78C239.836 6.78 240.112 6.836 240.368 6.948C240.624 7.06 240.848 7.212 241.04 7.404C241.232 7.596 241.384 7.82 241.496 8.076C241.608 8.332 241.664 8.604 241.664 8.892V12.888C241.664 13.176 241.608 13.448 241.496 13.704C241.384 13.96 241.232 14.184 241.04 14.376C240.848 14.568 240.624 14.72 240.368 14.832C240.112 14.944 239.836 15 239.54 15H237.2C236.904 15 236.628 14.944 236.372 14.832C236.116 14.72 235.892 14.568 235.7 14.376C235.508 14.184 235.356 13.96 235.244 13.704C235.132 13.448 235.076 13.176 235.076 12.888V8.892C235.076 8.604 235.132 8.332 235.244 8.076C235.356 7.82 235.508 7.596 235.7 7.404C235.892 7.212 236.116 7.06 236.372 6.948C236.628 6.836 236.904 6.78 237.2 6.78H239.54ZM240.02 8.892C240.02 8.756 239.972 8.644 239.876 8.556C239.788 8.468 239.676 8.424 239.54 8.424H237.2C237.064 8.424 236.948 8.468 236.852 8.556C236.764 8.644 236.72 8.756 236.72 8.892V12.888C236.72 13.024 236.764 13.136 236.852 13.224C236.948 13.312 237.064 13.356 237.2 13.356H239.54C239.676 13.356 239.788 13.312 239.876 13.224C239.972 13.136 240.02 13.024 240.02 12.888V8.892ZM250.031 8.952C250.031 9.024 250.011 9.104 249.971 9.192C249.931 9.272 249.883 9.336 249.827 9.384L248.027 10.884L249.827 12.396C249.883 12.436 249.931 12.5 249.971 12.588C250.011 12.668 250.031 12.744 250.031 12.816V14.748C250.031 14.812 250.003 14.872 249.947 14.928C249.899 14.976 249.839 15 249.767 15H248.639C248.567 15 248.503 14.976 248.447 14.928C248.399 14.872 248.375 14.812 248.375 14.748V13.596C248.375 13.524 248.355 13.448 248.315 13.368C248.283 13.28 248.239 13.212 248.183 13.164L246.731 11.964L245.291 13.164C245.235 13.212 245.187 13.28 245.147 13.368C245.107 13.448 245.087 13.524 245.087 13.596V14.748C245.087 14.812 245.063 14.872 245.015 14.928C244.967 14.976 244.907 15 244.835 15H243.707C243.635 15 243.571 14.976 243.515 14.928C243.467 14.872 243.443 14.812 243.443 14.748V12.816C243.443 12.744 243.459 12.668 243.491 12.588C243.531 12.5 243.583 12.436 243.647 12.396L245.447 10.884L243.647 9.384C243.583 9.336 243.531 9.272 243.491 9.192C243.459 9.104 243.443 9.024 243.443 8.952V7.032C243.443 6.96 243.467 6.9 243.515 6.852C243.571 6.796 243.635 6.768 243.707 6.768H244.835C244.907 6.768 244.967 6.796 245.015 6.852C245.063 6.9 245.087 6.96 245.087 7.032V8.184C245.087 8.256 245.107 8.336 245.147 8.424C245.187 8.504 245.235 8.568 245.291 8.616L246.731 9.816L248.183 8.616C248.239 8.568 248.283 8.504 248.315 8.424C248.355 8.336 248.375 8.256 248.375 8.184V7.032C248.375 6.96 248.399 6.9 248.447 6.852C248.503 6.796 248.567 6.768 248.639 6.768H249.767C249.839 6.768 249.899 6.796 249.947 6.852C250.003 6.9 250.031 6.96 250.031 7.032V8.952ZM256.742 8.892C256.742 8.756 256.694 8.644 256.598 8.556C256.51 8.46 256.402 8.412 256.274 8.412H253.922C253.794 8.412 253.682 8.46 253.586 8.556C253.498 8.644 253.454 8.756 253.454 8.892V12.876C253.454 13.012 253.498 13.128 253.586 13.224C253.682 13.312 253.794 13.356 253.922 13.356H256.274C256.402 13.356 256.51 13.312 256.598 13.224C256.694 13.128 256.742 13.012 256.742 12.876V11.712H255.362C255.29 11.712 255.226 11.688 255.17 11.64C255.122 11.584 255.098 11.52 255.098 11.448V10.32C255.098 10.248 255.122 10.188 255.17 10.14C255.226 10.092 255.29 10.068 255.362 10.068H258.134C258.206 10.068 258.266 10.092 258.314 10.14C258.362 10.188 258.386 10.248 258.386 10.32V12.876C258.386 13.172 258.33 13.448 258.218 13.704C258.106 13.96 257.954 14.184 257.762 14.376C257.57 14.568 257.346 14.72 257.09 14.832C256.834 14.944 256.562 15 256.274 15H253.922C253.634 15 253.362 14.944 253.106 14.832C252.85 14.72 252.626 14.568 252.434 14.376C252.242 14.184 252.09 13.96 251.978 13.704C251.866 13.448 251.81 13.172 251.81 12.876V8.892C251.81 8.596 251.866 8.32 251.978 8.064C252.09 7.808 252.242 7.584 252.434 7.392C252.626 7.2 252.85 7.048 253.106 6.936C253.362 6.824 253.634 6.768 253.922 6.768H256.274C256.562 6.768 256.834 6.824 257.09 6.936C257.346 7.048 257.57 7.2 257.762 7.392C257.954 7.584 258.106 7.808 258.218 8.064C258.33 8.32 258.386 8.596 258.386 8.892V8.976C258.386 9.048 258.362 9.112 258.314 9.168C258.266 9.216 258.206 9.24 258.134 9.24H257.006C256.934 9.24 256.87 9.216 256.814 9.168C256.766 9.112 256.742 9.048 256.742 8.976V8.892ZM265.097 7.032C265.097 6.96 265.121 6.9 265.169 6.852C265.225 6.796 265.289 6.768 265.361 6.768H266.489C266.561 6.768 266.621 6.796 266.669 6.852C266.725 6.9 266.753 6.96 266.753 7.032V14.736C266.753 14.808 266.725 14.872 266.669 14.928C266.621 14.976 266.561 15 266.489 15H265.361C265.289 15 265.225 14.976 265.169 14.928C265.121 14.872 265.097 14.808 265.097 14.736V11.928L261.809 8.976V14.736C261.809 14.808 261.781 14.872 261.725 14.928C261.677 14.976 261.617 15 261.545 15H260.429C260.357 15 260.293 14.976 260.237 14.928C260.189 14.872 260.165 14.808 260.165 14.736V7.032C260.165 6.96 260.189 6.9 260.237 6.852C260.293 6.796 260.357 6.768 260.429 6.768H261.545C261.617 6.768 261.697 6.788 261.785 6.828C261.873 6.86 261.945 6.9 262.001 6.948L265.097 9.72V7.032Z" fill="#2B2E45"/>
</svg>
