<svg width="24" height="24" viewBox="0 0 24 24" fill="none" xmlns="http://www.w3.org/2000/svg">
<rect width="24" height="24" fill="#2B2E45"/>
<path d="M16.5 9.25H15.75V7.75C15.75 5.68 14.07 4 12 4C9.93 4 8.25 5.68 8.25 7.75V9.25H7.5C6.675 9.25 6 9.925 6 10.75V18.25C6 19.075 6.675 19.75 7.5 19.75H16.5C17.325 19.75 18 19.075 18 18.25V10.75C18 9.925 17.325 9.25 16.5 9.25ZM12 16C11.175 16 10.5 15.325 10.5 14.5C10.5 13.675 11.175 13 12 13C12.825 13 13.5 13.675 13.5 14.5C13.5 15.325 12.825 16 12 16ZM14.325 9.25H9.675V7.75C9.675 6.4675 10.7175 5.425 12 5.425C13.2825 5.425 14.325 6.4675 14.325 7.75V9.25Z" fill="white"/>
</svg>
