<svg width="18" height="18" viewBox="0 0 18 18" fill="none" xmlns="http://www.w3.org/2000/svg">
<path fill-rule="evenodd" clip-rule="evenodd" d="M5.13691 3C4.31093 3 3.59093 3.56209 3.39064 4.36338L3.01788 5.85452C3.00603 5.90203 3 5.95095 3 5.99997C3 6.60868 3.22651 7.16445 3.59997 7.58753V13.2C3.59997 14.1942 4.40586 15 5.39999 15H12.6001C13.5942 15 14.4001 14.1942 14.4001 13.2V7.58753C14.7735 7.16445 15 6.60868 15 5.99997C15 5.95095 14.9941 5.90203 14.9822 5.85452L14.6094 4.36338C14.4091 3.56212 13.6891 3 12.8631 3H5.13691ZM4.8 10.8V8.32437C4.99175 8.37369 5.19274 8.40001 5.39997 8.40001C6.11676 8.40001 6.76022 8.0857 7.19999 7.58748C7.63976 8.0857 8.28321 8.40001 9.00001 8.40001C9.7168 8.40001 10.3603 8.0857 10.8 7.58748C11.2398 8.0857 11.8832 8.40001 12.6 8.40001C12.8073 8.40001 13.0083 8.37369 13.2 8.32437V10.8H4.8Z" fill="current"/>
</svg>
