<svg width="37" height="19" viewBox="0 0 37 19" fill="none" xmlns="http://www.w3.org/2000/svg">
<rect width="37" height="19" fill="#61FF2A"/>
<path d="M12.8959 6.36C12.8959 6.3 12.9159 6.25 12.9559 6.21C13.0026 6.16333 13.0559 6.14 13.1159 6.14H14.0559C14.1159 6.14 14.1659 6.16333 14.2059 6.21C14.2526 6.25 14.2759 6.3 14.2759 6.36V12.78C14.2759 12.84 14.2526 12.8933 14.2059 12.94C14.1659 12.98 14.1159 13 14.0559 13H13.1159C13.0559 13 13.0026 12.98 12.9559 12.94C12.9159 12.8933 12.8959 12.84 12.8959 12.78V10.44L10.1559 7.98V12.78C10.1559 12.84 10.1326 12.8933 10.0859 12.94C10.0459 12.98 9.9959 13 9.9359 13H9.0059C8.9459 13 8.89257 12.98 8.8459 12.94C8.8059 12.8933 8.7859 12.84 8.7859 12.78V6.36C8.7859 6.3 8.8059 6.25 8.8459 6.21C8.89257 6.16333 8.9459 6.14 9.0059 6.14H9.9359C9.9959 6.14 10.0626 6.15667 10.1359 6.19C10.2092 6.21667 10.2692 6.25 10.3159 6.29L12.8959 8.6V6.36ZM21.1386 7.3C21.1386 7.36 21.1186 7.41 21.0786 7.45C21.0386 7.49 20.9886 7.51 20.9286 7.51H17.2286V8.89H20.5786C20.6386 8.89 20.6886 8.91 20.7286 8.95C20.7752 8.99 20.7986 9.04 20.7986 9.1V10.04C20.7986 10.1 20.7752 10.1533 20.7286 10.2C20.6886 10.24 20.6386 10.26 20.5786 10.26H17.2286V11.63H20.9286C20.9886 11.63 21.0386 11.6533 21.0786 11.7C21.1186 11.74 21.1386 11.79 21.1386 11.85V12.78C21.1386 12.84 21.1186 12.8933 21.0786 12.94C21.0386 12.98 20.9886 13 20.9286 13H16.0686C16.0086 13 15.9586 12.98 15.9186 12.94C15.8786 12.8933 15.8586 12.84 15.8586 12.78V6.36C15.8586 6.3 15.8786 6.25 15.9186 6.21C15.9586 6.16333 16.0086 6.14 16.0686 6.14H20.9286C20.9886 6.14 21.0386 6.16333 21.0786 6.21C21.1186 6.25 21.1386 6.3 21.1386 6.36V7.3ZM28.1014 6.14C28.1614 6.14 28.2114 6.16 28.2514 6.2C28.2914 6.24667 28.3081 6.3 28.3014 6.36L27.9014 12.79C27.8948 12.85 27.8714 12.9 27.8314 12.94C27.7848 12.98 27.7314 13 27.6714 13H26.7514C26.6914 13 26.6314 12.98 26.5714 12.94C26.5048 12.9067 26.4548 12.8633 26.4214 12.81L25.4614 11.15L24.5014 12.81C24.4681 12.8633 24.4214 12.9067 24.3614 12.94C24.2948 12.98 24.2314 13 24.1714 13H23.2614C23.2081 13 23.1581 12.98 23.1114 12.94C23.0648 12.9 23.0381 12.85 23.0314 12.79L22.6314 6.36C22.6248 6.3 22.6414 6.24667 22.6814 6.2C22.7214 6.16 22.7714 6.14 22.8314 6.14H23.7714C23.8314 6.14 23.8848 6.16 23.9314 6.2C23.9714 6.24667 23.9948 6.3 24.0014 6.36L24.2414 10.89L24.9114 9.83C24.9448 9.77667 24.9948 9.73333 25.0614 9.7C25.1214 9.66 25.1814 9.64 25.2414 9.64H25.6814C25.7414 9.64 25.8048 9.66 25.8714 9.7C25.9314 9.73333 25.9781 9.77667 26.0114 9.83L26.6914 10.9L26.9314 6.36C26.9381 6.3 26.9648 6.24667 27.0114 6.2C27.0514 6.16 27.1014 6.14 27.1614 6.14H28.1014Z" fill="#2B2E45"/>
</svg>
