<svg width="108" height="28" viewBox="0 0 108 28" fill="none" xmlns="http://www.w3.org/2000/svg">
<path fill-rule="evenodd" clip-rule="evenodd" d="M108 0H0V22H50.5359L54 28L57.4641 22H108V0Z" fill="#2B2E45"/>
<path d="M18.2656 9.24C18.1936 9.24 18.1296 9.216 18.0736 9.168C18.0256 9.112 18.0016 9.048 18.0016 8.976V8.892C18.0016 8.756 17.9576 8.644 17.8696 8.556C17.7816 8.46 17.6696 8.412 17.5336 8.412H15.1816C15.0536 8.412 14.9416 8.46 14.8456 8.556C14.7576 8.644 14.7136 8.756 14.7136 8.892V9.588C14.7136 9.724 14.7576 9.84 14.8456 9.936C14.9416 10.024 15.0536 10.068 15.1816 10.068H17.5336C17.8216 10.068 18.0936 10.124 18.3496 10.236C18.6056 10.348 18.8296 10.5 19.0216 10.692C19.2136 10.884 19.3656 11.108 19.4776 11.364C19.5896 11.62 19.6456 11.892 19.6456 12.18V12.876C19.6456 13.172 19.5896 13.448 19.4776 13.704C19.3656 13.96 19.2136 14.184 19.0216 14.376C18.8296 14.568 18.6056 14.72 18.3496 14.832C18.0936 14.944 17.8216 15 17.5336 15H15.1816C14.8936 15 14.6216 14.944 14.3656 14.832C14.1096 14.72 13.8856 14.568 13.6936 14.376C13.5016 14.184 13.3496 13.96 13.2376 13.704C13.1256 13.448 13.0696 13.172 13.0696 12.876V12.792C13.0696 12.72 13.0936 12.66 13.1416 12.612C13.1976 12.556 13.2616 12.528 13.3336 12.528H14.4496C14.5216 12.528 14.5816 12.556 14.6296 12.612C14.6856 12.66 14.7136 12.72 14.7136 12.792V12.876C14.7136 13.012 14.7576 13.128 14.8456 13.224C14.9416 13.312 15.0536 13.356 15.1816 13.356H17.5336C17.6696 13.356 17.7816 13.312 17.8696 13.224C17.9576 13.128 18.0016 13.012 18.0016 12.876V12.18C18.0016 12.044 17.9576 11.932 17.8696 11.844C17.7816 11.756 17.6696 11.712 17.5336 11.712H15.1816C14.8936 11.712 14.6216 11.656 14.3656 11.544C14.1096 11.432 13.8856 11.28 13.6936 11.088C13.5016 10.896 13.3496 10.672 13.2376 10.416C13.1256 10.152 13.0696 9.876 13.0696 9.588V8.892C13.0696 8.596 13.1256 8.32 13.2376 8.064C13.3496 7.808 13.5016 7.584 13.6936 7.392C13.8856 7.2 14.1096 7.048 14.3656 6.936C14.6216 6.824 14.8936 6.768 15.1816 6.768H17.5336C17.8216 6.768 18.0936 6.824 18.3496 6.936C18.6056 7.048 18.8296 7.2 19.0216 7.392C19.2136 7.584 19.3656 7.808 19.4776 8.064C19.5896 8.32 19.6456 8.596 19.6456 8.892V8.976C19.6456 9.048 19.6216 9.112 19.5736 9.168C19.5256 9.216 19.4656 9.24 19.3936 9.24H18.2656ZM27.7608 6.768C27.8328 6.768 27.8928 6.796 27.9408 6.852C27.9968 6.9 28.0248 6.96 28.0248 7.032V8.16C28.0248 8.232 27.9968 8.292 27.9408 8.34C27.8928 8.388 27.8328 8.412 27.7608 8.412H25.5528V14.736C25.5528 14.808 25.5248 14.872 25.4688 14.928C25.4208 14.976 25.3608 15 25.2888 15H24.1608C24.0888 15 24.0288 14.976 23.9808 14.928C23.9328 14.872 23.9088 14.808 23.9088 14.736V8.412H21.7008C21.6288 8.412 21.5648 8.388 21.5088 8.34C21.4608 8.292 21.4368 8.232 21.4368 8.16V7.032C21.4368 6.96 21.4608 6.9 21.5088 6.852C21.5648 6.796 21.6288 6.768 21.7008 6.768H27.7608ZM34.22 6.768C34.292 6.768 34.36 6.792 34.424 6.84C34.496 6.888 34.544 6.944 34.568 7.008L36.296 11.304C36.32 11.368 36.34 11.452 36.356 11.556C36.38 11.652 36.392 11.736 36.392 11.808V14.736C36.392 14.808 36.364 14.872 36.308 14.928C36.26 14.976 36.2 15 36.128 15H35C34.928 15 34.864 14.976 34.808 14.928C34.76 14.872 34.736 14.808 34.736 14.736V13.356H31.448V14.736C31.448 14.808 31.42 14.872 31.364 14.928C31.316 14.976 31.256 15 31.184 15H30.068C29.996 15 29.932 14.976 29.876 14.928C29.828 14.872 29.804 14.808 29.804 14.736V11.808C29.804 11.736 29.812 11.652 29.828 11.556C29.852 11.452 29.876 11.368 29.9 11.304L31.616 7.008C31.648 6.944 31.696 6.888 31.76 6.84C31.832 6.792 31.904 6.768 31.976 6.768H34.22ZM31.508 11.712H34.676L33.356 8.412H32.828L31.508 11.712ZM44.6632 14.772C44.7032 14.836 44.7072 14.892 44.6752 14.94C44.6512 14.98 44.6032 15 44.5312 15H43.1632C43.0912 15 43.0192 14.98 42.9472 14.94C42.8752 14.892 42.8192 14.836 42.7792 14.772L41.0392 11.712H39.8752V14.736C39.8752 14.808 39.8472 14.872 39.7912 14.928C39.7432 14.976 39.6832 15 39.6112 15H38.4832C38.4112 15 38.3512 14.976 38.3032 14.928C38.2552 14.872 38.2312 14.808 38.2312 14.736V7.032C38.2312 6.96 38.2552 6.9 38.3032 6.852C38.3512 6.796 38.4112 6.768 38.4832 6.768H39.6112C39.6832 6.768 39.7432 6.796 39.7912 6.852C39.8472 6.9 39.8752 6.96 39.8752 7.032V10.068H41.0392L42.7792 6.996C42.8192 6.932 42.8752 6.88 42.9472 6.84C43.0192 6.792 43.0912 6.768 43.1632 6.768H44.5312C44.6032 6.768 44.6512 6.792 44.6752 6.84C44.7072 6.88 44.7032 6.932 44.6632 6.996L42.4672 10.884L44.6632 14.772ZM52.9944 8.16C52.9944 8.232 52.9704 8.292 52.9224 8.34C52.8744 8.388 52.8144 8.412 52.7424 8.412H48.3024V10.068H52.3224C52.3944 10.068 52.4544 10.092 52.5024 10.14C52.5584 10.188 52.5864 10.248 52.5864 10.32V11.448C52.5864 11.52 52.5584 11.584 52.5024 11.64C52.4544 11.688 52.3944 11.712 52.3224 11.712H48.3024V13.356H52.7424C52.8144 13.356 52.8744 13.384 52.9224 13.44C52.9704 13.488 52.9944 13.548 52.9944 13.62V14.736C52.9944 14.808 52.9704 14.872 52.9224 14.928C52.8744 14.976 52.8144 15 52.7424 15H46.9104C46.8384 15 46.7784 14.976 46.7304 14.928C46.6824 14.872 46.6584 14.808 46.6584 14.736V7.032C46.6584 6.96 46.6824 6.9 46.7304 6.852C46.7784 6.796 46.8384 6.768 46.9104 6.768H52.7424C52.8144 6.768 52.8744 6.796 52.9224 6.852C52.9704 6.9 52.9944 6.96 52.9944 7.032V8.16ZM69.5733 6.768C69.6453 6.768 69.7093 6.792 69.7653 6.84C69.8133 6.896 69.8373 6.96 69.8373 7.032V14.736C69.8373 14.808 69.8133 14.868 69.7653 14.916C69.7093 14.972 69.6453 15 69.5733 15H68.4573C68.3853 15 68.3253 14.972 68.2773 14.916C68.2213 14.868 68.1933 14.808 68.1933 14.736V9.612L67.2093 11.172C67.1693 11.236 67.1133 11.292 67.0413 11.34C66.9613 11.38 66.8853 11.4 66.8133 11.4H66.2853C66.2133 11.4 66.1373 11.38 66.0573 11.34C65.9853 11.292 65.9293 11.236 65.8893 11.172L64.8933 9.6V14.736C64.8933 14.808 64.8693 14.868 64.8213 14.916C64.7653 14.972 64.7013 15 64.6293 15H63.5133C63.4413 15 63.3813 14.972 63.3333 14.916C63.2773 14.868 63.2493 14.808 63.2493 14.736V7.032C63.2493 6.96 63.2773 6.896 63.3333 6.84C63.3813 6.792 63.4413 6.768 63.5133 6.768H64.6293L64.7133 6.78C64.7533 6.788 64.7933 6.808 64.8333 6.84C64.9133 6.88 64.9733 6.932 65.0133 6.996L66.5493 9.648L68.0853 6.996C68.1253 6.932 68.1813 6.88 68.2533 6.84L68.3493 6.792C68.3813 6.776 68.4173 6.768 68.4573 6.768H69.5733ZM76.0805 6.78C76.3765 6.78 76.6525 6.836 76.9085 6.948C77.1645 7.06 77.3885 7.212 77.5805 7.404C77.7725 7.596 77.9245 7.82 78.0365 8.076C78.1485 8.332 78.2045 8.604 78.2045 8.892V12.888C78.2045 13.176 78.1485 13.448 78.0365 13.704C77.9245 13.96 77.7725 14.184 77.5805 14.376C77.3885 14.568 77.1645 14.72 76.9085 14.832C76.6525 14.944 76.3765 15 76.0805 15H73.7405C73.4445 15 73.1685 14.944 72.9125 14.832C72.6565 14.72 72.4325 14.568 72.2405 14.376C72.0485 14.184 71.8965 13.96 71.7845 13.704C71.6725 13.448 71.6165 13.176 71.6165 12.888V8.892C71.6165 8.604 71.6725 8.332 71.7845 8.076C71.8965 7.82 72.0485 7.596 72.2405 7.404C72.4325 7.212 72.6565 7.06 72.9125 6.948C73.1685 6.836 73.4445 6.78 73.7405 6.78H76.0805ZM76.5605 8.892C76.5605 8.756 76.5125 8.644 76.4165 8.556C76.3285 8.468 76.2165 8.424 76.0805 8.424H73.7405C73.6045 8.424 73.4885 8.468 73.3925 8.556C73.3045 8.644 73.2605 8.756 73.2605 8.892V12.888C73.2605 13.024 73.3045 13.136 73.3925 13.224C73.4885 13.312 73.6045 13.356 73.7405 13.356H76.0805C76.2165 13.356 76.3285 13.312 76.4165 13.224C76.5125 13.136 76.5605 13.024 76.5605 12.888V8.892ZM86.4517 14.76C86.4837 14.824 86.4837 14.88 86.4517 14.928C86.4197 14.976 86.3677 15 86.2957 15H85.0117C84.9397 15 84.8677 14.976 84.7957 14.928C84.7317 14.88 84.6837 14.824 84.6517 14.76L83.2717 11.712H81.6397V14.736C81.6397 14.808 81.6117 14.872 81.5557 14.928C81.5077 14.976 81.4477 15 81.3757 15H80.2477C80.1757 15 80.1117 14.976 80.0557 14.928C80.0077 14.872 79.9837 14.808 79.9837 14.736V7.032C79.9837 6.96 80.0077 6.9 80.0557 6.852C80.1117 6.796 80.1757 6.768 80.2477 6.768H84.4477C84.7437 6.768 85.0197 6.824 85.2757 6.936C85.5317 7.048 85.7557 7.2 85.9477 7.392C86.1397 7.584 86.2917 7.808 86.4037 8.064C86.5157 8.32 86.5717 8.596 86.5717 8.892V9.588C86.5717 9.828 86.5317 10.06 86.4517 10.284C86.3797 10.5 86.2757 10.7 86.1397 10.884C86.0037 11.06 85.8397 11.212 85.6477 11.34C85.4637 11.468 85.2597 11.564 85.0357 11.628L86.4517 14.76ZM84.4477 10.068C84.5837 10.068 84.6957 10.024 84.7837 9.936C84.8797 9.84 84.9277 9.724 84.9277 9.588V8.892C84.9277 8.756 84.8797 8.644 84.7837 8.556C84.6957 8.46 84.5837 8.412 84.4477 8.412H81.6397V10.068H84.4477ZM94.8069 8.16C94.8069 8.232 94.7829 8.292 94.7349 8.34C94.6869 8.388 94.6269 8.412 94.5549 8.412H90.1149V10.068H94.1349C94.2069 10.068 94.2669 10.092 94.3149 10.14C94.3709 10.188 94.3989 10.248 94.3989 10.32V11.448C94.3989 11.52 94.3709 11.584 94.3149 11.64C94.2669 11.688 94.2069 11.712 94.1349 11.712H90.1149V13.356H94.5549C94.6269 13.356 94.6869 13.384 94.7349 13.44C94.7829 13.488 94.8069 13.548 94.8069 13.62V14.736C94.8069 14.808 94.7829 14.872 94.7349 14.928C94.6869 14.976 94.6269 15 94.5549 15H88.7229C88.6509 15 88.5909 14.976 88.5429 14.928C88.4949 14.872 88.4709 14.808 88.4709 14.736V7.032C88.4709 6.96 88.4949 6.9 88.5429 6.852C88.5909 6.796 88.6509 6.768 88.7229 6.768H94.5549C94.6269 6.768 94.6869 6.796 94.7349 6.852C94.7829 6.9 94.8069 6.96 94.8069 7.032V8.16Z" fill="white"/>
</svg>
