<?xml version="1.0" standalone="no"?>
<!DOCTYPE svg PUBLIC "-//W3C//DTD SVG 20010904//EN"
 "http://www.w3.org/TR/2001/REC-SVG-20010904/DTD/svg10.dtd">
<svg version="1.0" xmlns="http://www.w3.org/2000/svg"
 width="1712.000000pt" height="1712.000000pt" viewBox="0 0 1712.000000 1712.000000"
 preserveAspectRatio="xMidYMid meet">
<metadata>
Created by potrace 1.14, written by Peter Selinger 2001-2017
</metadata>
<g transform="translate(0.000000,1712.000000) scale(0.100000,-0.100000)"
fill="#000000" stroke="none">
<path d="M9058 14520 l-96 -70 -37 17 c-30 15 -41 15 -68 5 -18 -7 -140 -29
-272 -48 -454 -66 -1050 -178 -1360 -253 -342 -84 -534 -126 -740 -161 -216
-37 -308 -60 -406 -100 -102 -41 -114 -55 -116 -137 -1 -64 -3 -68 -45 -109
-24 -23 -352 -305 -730 -627 -378 -322 -867 -739 -1087 -927 -581 -495 -608
-528 -704 -855 -22 -76 -11 -266 42 -695 28 -228 87 -710 131 -1070 44 -360
111 -914 150 -1230 110 -910 109 -896 105 -1015 -2 -60 -7 -130 -10 -155 -5
-38 -1 -53 24 -96 38 -65 221 -266 269 -296 44 -27 75 -28 329 -10 95 7 214
12 265 12 l93 0 60 -61 c33 -34 80 -75 104 -91 43 -30 46 -31 216 -39 94 -5
227 -15 296 -23 251 -31 688 -71 882 -82 116 -7 117 -7 169 -45 28 -22 61 -39
73 -39 40 0 111 -30 146 -62 l34 -32 -98 -17 c-54 -10 -109 -24 -122 -33 -28
-19 -38 -61 -33 -140 l3 -56 -35 -5 c-19 -3 -110 -24 -202 -46 -93 -22 -176
-39 -185 -37 -9 2 -20 14 -23 28 -5 21 -12 25 -50 28 -53 4 -90 -5 -277 -71
l-143 -49 0 -112 c0 -81 6 -134 20 -190 21 -79 43 -192 55 -279 5 -41 12 -51
43 -71 139 -89 296 -398 349 -686 24 -132 24 -389 0 -534 -22 -127 -64 -281
-113 -415 -111 -296 -376 -742 -767 -1288 -202 -282 -249 -353 -293 -448 -65
-141 -94 -329 -94 -613 l0 -152 -119 -243 c-157 -318 -266 -599 -295 -759 -6
-35 -5 -38 17 -38 21 0 26 10 52 103 15 56 34 111 41 122 7 11 20 46 28 77 31
121 261 613 305 652 11 11 21 29 21 40 0 43 340 626 641 1097 168 264 651 992
692 1044 13 17 75 102 137 190 62 88 161 228 220 310 58 83 118 175 132 205
14 30 38 71 53 90 l26 35 -7 -30 c-10 -44 -23 -67 -147 -263 -62 -97 -155
-249 -207 -337 -105 -178 -280 -446 -315 -485 -27 -28 -138 -199 -258 -395
-94 -153 -179 -278 -219 -321 -31 -33 -49 -68 -160 -314 -148 -327 -181 -396
-199 -416 -10 -11 -59 -134 -108 -273 -50 -139 -113 -303 -142 -364 -67 -146
-131 -313 -174 -459 -27 -91 -35 -135 -35 -197 0 -44 3 -86 6 -95 5 -14 49
-16 388 -16 l382 0 13 253 c7 139 17 280 22 313 6 32 14 136 19 229 33 645 34
652 110 935 14 49 122 192 287 378 80 90 175 209 219 277 121 184 387 696 461
890 19 49 51 121 71 160 38 77 158 438 200 605 25 100 26 116 25 360 0 179 -5
289 -17 370 -32 226 -101 433 -194 580 -72 113 -139 243 -150 290 -16 68 -49
306 -59 417 -4 56 -3 63 19 77 28 18 195 49 241 44 31 -3 29 -5 -36 -35 -84
-40 -103 -74 -93 -168 3 -33 11 -107 16 -165 5 -57 15 -119 21 -137 5 -17 49
-105 95 -195 139 -265 169 -347 193 -534 37 -295 57 -663 41 -789 -14 -113
-74 -382 -95 -422 -10 -19 -14 -42 -10 -55 4 -15 3 -18 -2 -11 -6 9 -40 -73
-98 -235 -48 -136 -103 -278 -121 -317 -18 -38 -44 -97 -57 -130 -29 -70 -90
-181 -133 -245 -17 -25 -44 -74 -61 -110 -34 -73 -184 -317 -244 -397 -21 -29
-39 -56 -39 -61 0 -5 -13 -27 -28 -48 -36 -51 -137 -303 -213 -534 -67 -205
-81 -295 -56 -365 11 -32 12 -46 1 -81 -7 -23 -15 -55 -17 -71 -3 -15 -8 -44
-12 -64 -4 -21 -3 -39 3 -43 5 -3 9 12 9 35 0 36 16 70 27 58 2 -2 -4 -44 -15
-94 -15 -75 -50 -322 -61 -440 -2 -24 -8 -30 -27 -30 -32 0 -36 -16 -55 -223
-9 -92 -19 -191 -22 -219 l-5 -53 596 0 597 0 -6 34 c-4 19 -13 47 -20 62 -8
16 -22 72 -31 124 -18 101 -39 152 -77 186 -12 12 -68 41 -123 64 -55 23 -167
77 -250 120 -155 80 -343 160 -430 181 -27 7 -54 16 -58 20 -7 5 28 237 37
246 2 2 36 -11 77 -28 41 -18 112 -45 159 -61 81 -28 184 -65 541 -191 210
-75 260 -98 292 -136 15 -18 27 -36 28 -39 23 -273 31 -305 110 -485 l43 -97
550 0 551 0 38 111 c121 356 298 721 475 979 198 288 454 549 658 670 33 19
72 45 88 58 78 63 378 186 566 231 165 40 209 45 405 45 301 1 578 -29 658
-71 18 -9 49 -18 70 -19 51 -3 223 -88 328 -164 383 -272 676 -798 858 -1540
21 -85 44 -188 51 -228 l13 -72 178 0 177 0 7 68 c12 127 16 143 38 151 12 4
29 6 39 3 16 -4 18 -17 18 -113 l0 -109 228 0 227 0 4 258 c6 482 9 434 -34
547 -20 55 -64 154 -97 220 -48 96 -59 127 -55 155 3 22 -8 74 -29 141 -18 58
-35 123 -39 145 -3 21 -8 50 -11 64 -14 66 26 -22 196 -430 28 -69 65 -154 81
-189 l29 -63 0 -424 0 -424 593 0 594 0 6 98 c10 149 23 199 70 277 l42 70 3
-222 2 -223 37 0 36 0 -6 452 c-4 249 -14 559 -22 688 -8 129 -15 297 -15 373
0 138 3 151 36 129 19 -11 45 -620 51 -1159 l6 -483 323 0 324 0 0 140 c0 76
-7 267 -15 422 -17 324 -35 801 -30 806 8 8 128 -62 175 -102 49 -42 100 -66
140 -66 29 0 50 -40 60 -113 26 -190 42 -384 50 -617 5 -140 12 -303 16 -363
l7 -107 90 0 90 0 -7 122 c-18 334 -71 644 -127 752 -17 33 -18 38 -3 26 89
-75 154 -366 168 -760 3 -69 5 -128 5 -132 1 -5 154 -8 341 -8 187 0 340 3
340 8 0 4 -20 170 -44 370 l-44 363 -433 910 c-238 501 -439 914 -447 917 -19
7 -117 -16 -182 -43 -30 -13 -122 -46 -205 -75 -988 -341 -1324 -455 -1399
-476 -49 -14 -103 -32 -120 -41 -31 -16 -389 -143 -476 -169 -25 -7 -108 -36
-184 -64 -77 -27 -140 -50 -142 -50 -1 0 4 19 11 43 7 24 18 91 24 149 6 58
19 146 27 194 9 49 19 184 24 299 5 116 11 220 15 232 6 18 4 21 -14 16 -16
-4 -21 -1 -21 15 0 11 7 25 16 33 8 7 56 74 105 148 49 75 93 141 97 146 4 6
29 46 56 90 58 97 152 222 176 235 13 7 20 6 24 -5 5 -14 -88 -157 -318 -490
l-97 -140 6 -170 c8 -237 12 -265 39 -265 11 0 398 147 858 327 810 316 838
328 838 353 0 24 -8 28 -107 62 -60 20 -340 114 -623 210 -509 173 -515 175
-508 199 25 85 53 210 64 284 l6 40 -112 19 c-129 22 -111 30 -194 -94 -31
-47 -67 -96 -79 -110 -13 -14 -45 -52 -72 -85 -28 -33 -55 -64 -61 -70 -35
-29 -201 -229 -236 -282 l-40 -62 -18 21 c-17 22 -17 24 34 93 29 38 141 193
251 344 117 161 211 281 229 292 17 11 45 19 63 19 17 0 564 -77 1215 -172
651 -94 1214 -174 1253 -177 l69 -6 61 -72 c87 -105 44 -9 495 -1108 194 -473
356 -869 361 -880 4 -11 8 264 8 610 0 453 -3 625 -10 612 -16 -28 -24 -133
-10 -141 6 -4 11 -11 11 -17 0 -15 -26 -10 -41 7 -7 9 -24 20 -36 25 -13 5
-37 29 -55 54 -31 43 -58 59 -58 32 0 -7 7 -23 16 -35 8 -12 14 -22 12 -23
-28 -7 -40 -4 -52 13 -13 18 -23 20 -100 17 l-85 -4 -14 35 c-8 19 -78 189
-156 377 -77 189 -141 347 -141 352 0 10 -84 115 -139 174 -32 34 -40 37 -87
37 -57 0 -2300 322 -2404 345 -117 26 -185 14 -246 -44 -21 -20 -153 -195
-293 -389 l-254 -351 -28 24 c-44 37 -93 48 -171 41 l-70 -6 -82 59 c-76 55
-295 170 -443 233 -51 21 -65 33 -83 67 -22 45 -199 268 -249 316 -18 17 -50
35 -73 40 -34 9 -50 23 -101 88 -55 72 -60 82 -58 123 6 122 -29 249 -99 354
-16 25 -50 88 -75 140 -42 87 -46 101 -46 167 1 61 -4 83 -33 145 -56 123 -88
255 -89 366 0 112 22 187 117 399 53 117 106 268 106 299 0 8 10 38 21 65 25
57 75 93 149 104 88 14 125 49 118 110 l-4 33 84 11 c83 10 85 11 230 109 111
74 151 106 164 133 11 22 22 82 29 163 10 115 15 134 44 185 153 267 204 347
309 488 l61 83 83 0 c85 0 156 23 168 54 3 7 44 44 91 82 94 76 422 407 465
470 51 73 67 179 84 551 l7 152 -25 10 c-14 5 -46 12 -72 16 -25 4 -48 11 -51
15 -8 13 13 102 57 245 21 72 50 166 63 210 58 191 184 739 240 1045 33 178
35 201 25 260 -13 74 -75 209 -173 375 -46 79 -62 114 -55 122 7 9 7 22 0 40
-6 16 -13 49 -15 76 -6 58 2 60 87 12 88 -49 100 -47 125 20 34 90 30 110 -45
216 -37 52 -88 118 -115 147 -26 29 -62 73 -79 99 -18 26 -42 61 -55 78 l-24
30 31 75 c48 119 49 188 3 335 -49 156 -86 227 -229 441 -47 71 -250 280 -303
312 -21 13 -89 55 -152 94 l-113 70 -109 -13 -110 -13 -17 25 c-56 80 -132
120 -942 490 -58 26 -141 65 -185 87 -44 21 -417 196 -830 387 -412 191 -884
410 -1048 486 -164 77 -306 139 -316 139 -9 0 -60 -32 -113 -70z m1412 -655
c740 -345 1378 -643 1419 -661 41 -19 72 -36 69 -39 -3 -3 -280 123 -616 279
-583 272 -615 286 -697 297 -82 11 -115 25 -838 361 -414 193 -754 352 -756
354 -8 8 45 44 59 40 8 -2 620 -286 1360 -631z m-2692 244 c-1 -12 -10 -24
-18 -26 -12 -4 -13 -3 -1 5 8 6 12 20 9 37 -4 17 -2 23 4 17 5 -5 8 -20 6 -33z
m-59 -11 c11 -15 10 -16 -13 -5 -16 8 -20 14 -13 19 6 4 12 6 12 5 0 -1 6 -10
14 -19z m-56 -5 c-7 -2 -19 -2 -25 0 -7 3 -2 5 12 5 14 0 19 -2 13 -5z m-98
-19 c-33 -7 -69 -13 -80 -12 -27 0 83 26 115 26 14 0 -2 -6 -35 -14z m-173
-32 c-64 -15 -75 -21 -97 -54 -14 -21 -28 -38 -31 -38 -3 0 9 20 25 44 26 37
38 45 78 54 81 16 103 11 25 -6z m-170 -162 c-9 -16 -21 -30 -25 -30 -5 0 1
14 13 30 27 39 34 39 12 0z m-1138 -123 c20 -41 36 -77 36 -81 0 -18 187 -249
263 -325 l85 -84 12 59 c7 33 13 64 15 69 2 9 158 45 194 45 10 0 11 -16 5
-66 l-7 -67 64 6 c35 3 106 11 158 17 52 5 96 8 98 6 2 -2 -45 -13 -104 -25
-59 -12 -163 -36 -231 -52 -68 -16 -145 -29 -171 -29 -45 0 -53 4 -132 74 -88
78 -115 109 -213 241 -32 44 -78 103 -102 132 -48 56 -62 99 -45 132 20 36 37
24 75 -52z m2426 -85 c7 -67 11 -124 8 -127 -7 -8 -140 -25 -196 -25 -42 0
-67 8 -128 40 -85 45 -102 47 -196 23 -37 -9 -70 -14 -74 -10 -12 12 25 43 65
55 45 14 125 16 117 3 -9 -13 12 -25 92 -54 87 -32 145 -34 189 -8 35 22 35
21 59 151 17 93 33 126 45 92 4 -9 12 -72 19 -140z m-1638 110 c5 -12 166
-122 181 -123 9 0 9 -2 0 -5 -7 -3 -53 23 -103 57 -91 62 -110 79 -91 79 5 0
11 -4 13 -8z m552 -44 c20 -32 -29 -77 -55 -51 -5 5 3 9 19 8 22 0 27 4 27 25
0 33 -44 42 -52 11 -3 -12 -10 -21 -15 -21 -9 0 -4 13 15 38 14 17 47 11 61
-10z m-920 -103 c-36 -52 -67 -95 -70 -95 -7 0 120 190 128 190 4 0 -23 -43
-58 -95z m813 69 c-3 -3 -12 -4 -19 -1 -8 3 -5 6 6 6 11 1 17 -2 13 -5z m-54
-11 c-7 -2 -19 -2 -25 0 -7 3 -2 5 12 5 14 0 19 -2 13 -5z m-50 -10 c-7 -2
-19 -2 -25 0 -7 3 -2 5 12 5 14 0 19 -2 13 -5z m-56 -9 c-3 -3 -12 -4 -19 -1
-8 3 -5 6 6 6 11 1 17 -2 13 -5z m-1100 -66 c27 -35 71 -94 98 -133 52 -74
209 -235 260 -266 42 -26 118 -24 250 6 61 14 202 46 315 71 113 26 220 50
238 54 27 7 37 4 52 -13 11 -11 19 -22 17 -23 -1 -1 -56 -14 -122 -28 -188
-40 -244 -58 -337 -115 -85 -51 -297 -228 -369 -308 -21 -24 -49 -73 -67 -119
-48 -127 -48 -118 0 -147 84 -51 176 -151 229 -251 l31 -58 52 6 c29 3 60 8
68 11 11 4 25 -6 44 -32 16 -21 65 -74 109 -118 45 -44 122 -127 172 -185 148
-170 216 -216 108 -74 -36 48 -65 91 -65 96 0 31 156 -144 270 -302 43 -60
232 -240 318 -303 34 -25 79 -51 100 -58 61 -20 130 -69 255 -182 140 -127
221 -188 319 -242 63 -35 77 -48 102 -94 l28 -53 42 6 c90 15 1542 346 1559
357 29 16 35 0 8 -22 -15 -12 -39 -19 -68 -19 -24 0 -56 -6 -71 -14 -64 -33
-512 -140 -736 -176 -152 -24 -175 -30 -786 -188 -63 -16 -227 -53 -365 -81
-235 -48 -403 -88 -380 -90 6 -1 42 6 80 14 81 17 108 19 101 6 -3 -5 89 -44
204 -87 116 -43 209 -81 208 -84 -2 -3 -48 -48 -103 -99 -56 -53 -157 -132
-230 -181 -126 -84 -148 -106 -160 -162 -5 -25 -7 -26 -38 -16 -31 10 -57 15
-207 43 -209 39 -705 50 -1309 28 -213 -8 -340 -9 -352 -3 -10 6 -31 38 -47
72 -22 44 -65 100 -147 188 -64 69 -135 149 -158 179 l-42 54 60 51 c33 28 94
83 135 122 71 68 77 71 105 61 17 -5 122 -46 235 -90 113 -43 284 -106 380
-138 96 -32 242 -81 324 -109 l148 -51 82 20 c44 11 137 34 206 51 204 50 426
108 413 109 -7 1 -167 -35 -356 -79 l-344 -79 -112 37 c-62 21 -109 40 -106
44 4 3 -4 9 -17 13 -129 38 -434 142 -603 207 -352 135 -652 230 -1315 417
-179 51 -365 105 -415 122 -49 16 -162 52 -250 80 -88 28 -183 61 -210 75 -28
13 -56 24 -63 24 -20 0 -133 41 -184 66 -26 13 -58 24 -71 24 -47 0 -58 45
-24 95 83 121 71 111 1642 1448 374 319 698 597 720 618 23 22 48 39 58 39 9
0 17 5 17 10 0 23 21 6 67 -52z m1050 56 c-3 -3 -12 -4 -19 -1 -8 3 -5 6 6 6
11 1 17 -2 13 -5z m979 -166 l-1 -53 95 -6 c52 -3 110 -11 128 -18 36 -15 62
-6 151 50 24 16 50 29 57 29 16 0 26 -92 11 -106 -7 -7 -54 -19 -106 -27 l-94
-16 -48 25 c-59 29 -89 30 -222 4 -56 -11 -216 -43 -355 -70 -139 -28 -262
-50 -274 -50 -24 0 -134 99 -115 104 6 2 21 7 31 10 21 7 76 -37 76 -62 0 -8
6 -12 13 -9 25 9 321 75 367 81 72 10 93 25 105 76 11 44 12 45 75 67 103 34
108 33 106 -29z m-982 -267 c-23 -10 -52 -22 -65 -26 -13 -4 -75 -32 -138 -62
-115 -54 -132 -58 -63 -17 90 55 250 122 292 123 8 0 -3 -8 -26 -18z m5306
-255 c0 -2 -8 -10 -17 -17 -16 -13 -17 -12 -4 4 13 16 21 21 21 13z m-80 -135
c-27 -55 -54 -102 -60 -106 -19 -11 28 90 77 168 41 66 35 40 -17 -62z m425
82 c19 -15 18 -15 -20 -9 -22 3 -69 6 -105 7 -59 2 -61 3 -25 9 71 13 129 10
150 -7z m-311 -37 c-41 -36 -56 -32 -30 9 11 16 26 25 43 25 26 0 26 0 -13
-34z m563 -130 l28 -30 -38 32 c-20 17 -51 39 -67 47 -17 9 -30 18 -30 21 0
12 81 -41 107 -70z m-327 -36 c52 -4 106 -11 120 -16 70 -21 229 -154 264
-222 24 -46 9 -39 -54 24 -64 64 -139 115 -195 133 -22 7 -112 15 -200 18
-149 5 -164 4 -202 -15 -76 -39 -104 -87 -184 -307 -23 -65 -44 -114 -47 -107
-8 26 72 278 115 357 26 49 83 115 124 145 l39 28 62 -15 c35 -8 106 -18 158
-23z m-3270 -129 c5 -20 30 -106 55 -191 25 -85 70 -254 100 -375 39 -157 63
-232 83 -265 44 -71 274 -359 330 -413 27 -27 52 -45 54 -40 15 25 57 176 63
222 11 99 86 374 113 418 25 39 29 42 82 45 36 3 63 -1 78 -11 25 -15 56 -67
48 -80 -3 -4 4 -15 14 -24 31 -26 25 -107 -11 -160 -16 -23 -29 -49 -29 -58 0
-9 -25 -97 -55 -195 -30 -98 -53 -180 -50 -182 2 -2 18 1 36 7 39 13 60 14 37
1 -9 -6 -19 -24 -23 -41 -6 -27 -40 -58 -80 -73 -5 -2 -8 -6 -5 -9 3 -3 79 10
170 29 91 19 190 39 220 45 66 13 120 56 281 220 58 60 111 109 117 109 28 0
6 -33 -101 -151 -62 -68 -120 -136 -130 -151 -21 -34 -55 -51 -127 -68 -30 -6
-111 -27 -180 -45 -69 -18 -154 -37 -190 -43 -36 -5 -73 -13 -82 -17 -14 -5
-18 -2 -18 13 0 26 -74 96 -160 154 -36 24 -165 142 -291 268 l-226 225 -32
167 c-38 204 -79 348 -166 583 -37 99 -69 188 -72 199 -4 13 13 6 66 -29 58
-39 73 -55 81 -84z m815 15 l86 -54 -53 -15 c-29 -8 -66 -17 -83 -20 -16 -4
-72 -15 -124 -27 -52 -11 -102 -20 -111 -20 -9 0 -54 23 -100 52 l-84 51 45
14 c24 7 55 15 69 17 46 7 235 48 239 52 11 11 37 0 116 -50z m221 -138 c46
-29 83 -56 84 -60 0 -4 -26 -12 -57 -18 -74 -15 -165 -36 -247 -56 l-65 -16
-87 57 c-47 31 -85 57 -83 59 2 2 63 16 134 31 72 15 150 33 175 40 25 8 49
14 54 14 5 1 46 -23 92 -51z m2489 -59 c5 -6 2 -9 -8 -9 -23 0 -123 -51 -169
-87 -44 -33 -208 -217 -208 -232 0 -18 -164 -262 -225 -336 -95 -114 -185
-204 -265 -263 -41 -31 -101 -80 -132 -110 -34 -32 -92 -72 -141 -97 -78 -39
-89 -42 -196 -49 -93 -5 -122 -11 -164 -32 -49 -25 -288 -104 -412 -136 -142
-37 -491 -169 -695 -263 -195 -91 -400 -175 -425 -175 -45 0 -286 -184 -440
-336 -154 -152 -441 -462 -434 -469 2 -2 103 19 224 46 219 49 220 49 388 134
101 51 224 123 310 183 223 155 471 295 560 316 49 12 21 -11 -75 -60 -50 -26
-125 -72 -167 -102 -105 -75 -292 -200 -376 -251 -38 -23 -115 -74 -170 -113
-55 -38 -119 -79 -142 -90 -24 -10 -43 -26 -43 -34 0 -21 -95 -79 -171 -104
-35 -12 -112 -28 -171 -35 -160 -22 -355 -101 -433 -176 -17 -16 -34 -29 -38
-29 -11 0 96 133 173 215 65 70 123 139 280 335 248 309 398 470 500 535 107
70 521 265 644 305 22 7 103 39 180 72 208 88 426 163 561 193 159 35 240 58
414 116 118 40 158 49 214 49 81 0 135 24 165 72 27 43 82 94 162 150 36 26
115 97 176 160 207 210 239 252 328 424 55 108 131 196 211 243 88 53 176 70
210 40z m-2255 -91 c44 -28 77 -55 73 -59 -4 -4 -42 -14 -83 -24 -163 -36
-254 -55 -271 -55 -10 0 -55 24 -101 52 l-82 53 59 16 c33 9 102 25 154 34 52
9 104 21 115 25 38 16 54 11 136 -42z m2412 25 c10 -6 93 -134 118 -183 50
-98 65 -265 31 -357 -38 -104 -63 -132 -206 -233 -138 -98 -648 -587 -819
-785 -38 -44 -119 -132 -181 -196 -61 -63 -131 -148 -156 -187 -24 -40 -63
-101 -85 -136 -29 -45 -68 -141 -129 -313 -108 -307 -130 -354 -198 -423 -30
-30 -82 -87 -116 -127 -100 -117 -499 -514 -585 -582 -96 -76 -353 -205 -606
-306 -101 -40 -363 -163 -620 -292 -269 -135 -477 -232 -525 -247 -44 -13
-138 -44 -210 -69 -180 -63 -330 -81 -396 -46 -9 4 -101 31 -205 58 -170 45
-275 77 -457 140 -60 21 -162 75 -172 91 -3 5 -1 20 6 32 13 25 23 37 174 209
56 63 161 186 235 274 74 88 178 207 230 265 52 58 149 167 215 244 66 76 133
153 148 170 25 28 -68 -116 -185 -285 -24 -35 -93 -134 -152 -220 -59 -86
-148 -206 -198 -265 -116 -138 -214 -271 -262 -354 -21 -36 -43 -68 -49 -72
-6 -4 -9 -9 -6 -12 19 -20 341 -139 539 -199 192 -59 244 -62 420 -22 134 30
206 58 382 146 79 40 193 93 253 119 186 81 493 230 640 310 28 16 138 62 245
105 107 42 240 98 295 125 55 26 117 56 138 65 23 11 163 142 366 344 296 294
336 337 404 441 104 158 154 256 163 315 3 28 17 79 31 115 36 97 181 363 238
435 153 195 422 498 565 635 146 140 197 184 396 340 31 25 100 83 152 129 53
46 110 90 127 97 43 18 109 91 129 146 20 51 19 180 -2 258 -6 25 -14 57 -17
72 -5 25 -40 80 -128 198 l-37 50 27 -6 c16 -4 31 -9 35 -11z m-2175 -175 c83
-51 84 -53 57 -61 -25 -7 -263 -59 -334 -73 -18 -3 -47 10 -109 50 l-84 55 54
14 c30 8 92 23 139 32 47 10 99 21 115 25 57 15 76 10 162 -42z m223 -142 c56
-36 80 -57 70 -60 -15 -6 -169 -41 -250 -57 -122 -24 -113 -26 -200 31 -44 29
-80 54 -80 56 0 5 76 24 112 29 35 4 110 21 183 40 73 20 73 20 165 -39z m270
-170 l45 -30 -45 -12 c-25 -6 -76 -18 -115 -27 -38 -9 -102 -23 -142 -32 l-72
-17 -85 53 c-47 29 -83 56 -81 59 4 7 33 14 190 46 44 9 100 23 125 29 42 12
48 11 90 -13 25 -14 65 -39 90 -56z m-3709 -349 c102 -91 115 -105 106 -114
-21 -21 -290 218 -367 328 -27 36 75 -46 261 -214z m34 103 c74 -41 201 -126
210 -140 19 -30 -202 86 -278 147 -62 49 -77 76 -24 45 17 -10 59 -34 92 -52z
m230 -208 c96 -44 112 -54 128 -86 16 -34 39 -46 51 -27 4 5 30 -16 60 -47 30
-31 53 -58 51 -60 -6 -7 -106 29 -190 68 -86 40 -198 119 -216 153 -10 18 -7
18 37 -8 27 -15 68 -41 92 -57 27 -19 42 -24 42 -16 0 8 -45 40 -100 71 -55
32 -102 63 -105 68 -7 11 5 6 150 -59z m-4159 -58 c162 -53 329 -111 373 -129
44 -18 112 -42 153 -54 40 -12 109 -33 153 -46 44 -13 267 -78 495 -144 444
-128 787 -234 798 -246 7 -8 -70 -82 -182 -173 -58 -48 -69 -54 -77 -39 -5 9
-22 30 -36 48 -15 18 -28 39 -30 48 -1 8 -9 20 -17 27 -14 9 -12 20 14 88 17
43 30 79 30 80 0 2 -9 6 -19 9 -16 4 -25 -10 -56 -92 -20 -53 -45 -105 -55
-116 -10 -11 -27 -38 -38 -59 -12 -21 -45 -60 -75 -85 -147 -126 -361 -341
-390 -392 -24 -40 -29 -67 -43 -210 -9 -90 -16 -236 -17 -324 -1 -143 1 -166
21 -219 12 -33 22 -74 22 -91 0 -35 -60 -294 -112 -483 -25 -92 -36 -117 -60
-137 -16 -14 -35 -25 -43 -25 -7 0 -39 -20 -71 -43 -46 -34 -70 -63 -108 -128
-27 -46 -77 -131 -112 -189 -34 -58 -99 -179 -143 -270 -44 -91 -112 -223
-151 -293 -38 -71 -73 -140 -76 -153 -3 -13 -11 -24 -16 -24 -6 0 -7 -7 -4
-16 3 -8 2 -13 -3 -10 -4 3 -20 -17 -36 -45 -15 -28 -29 -49 -31 -47 -2 3 -49
375 -104 829 -168 1382 -259 2129 -301 2467 -43 353 -47 444 -24 572 18 100
53 210 67 210 5 0 142 -43 304 -96z m9258 -166 c9 -56 -2 -291 -20 -403 -23
-155 -95 -341 -186 -482 -57 -87 -231 -297 -289 -347 -73 -63 -186 -132 -286
-176 -52 -23 -96 -40 -97 -38 -9 11 17 68 31 68 22 0 142 62 222 115 104 69
244 198 310 285 79 106 141 232 195 400 66 205 79 273 82 455 2 88 4 161 4
163 0 1 6 2 14 2 8 0 16 -16 20 -42z m-4894 -15 c36 -14 76 -26 90 -27 14 -2
31 -4 37 -4 22 -3 77 -72 115 -145 20 -39 36 -73 34 -75 -6 -5 -161 93 -224
142 -31 25 -82 68 -112 96 -61 56 -57 57 60 13z m4825 -25 c23 -215 -101 -656
-244 -873 -47 -72 -210 -232 -301 -297 -72 -51 -218 -133 -226 -126 -2 3 33
28 79 55 160 99 344 307 460 523 37 68 97 228 127 339 43 154 65 343 46 399
-6 18 -3 24 16 31 13 6 26 10 30 10 3 1 9 -27 13 -61z m489 -8 c-5 -5 -83 -12
-174 -16 -126 -5 -169 -10 -182 -22 -11 -9 -18 -11 -18 -4 0 22 45 35 144 42
158 11 241 11 230 0z m-3076 -53 c8 -9 5 -26 -13 -63 -22 -47 -28 -51 -92 -74
-37 -13 -74 -25 -80 -28 -10 -3 -12 9 -8 49 4 46 10 58 37 81 18 15 53 31 78
36 64 14 66 13 78 -1z m-313 -36 c-11 -5 -40 -11 -65 -14 l-45 -6 45 13 c25 8
54 14 65 14 l20 1 -20 -8z m-118 -27 c-3 -3 -12 -4 -19 -1 -8 3 -5 6 6 6 11 1
17 -2 13 -5z m3533 -3 c0 -12 -68 -19 -247 -27 -113 -5 -153 -4 -153 5 0 7 30
11 93 12 76 1 169 7 290 17 9 1 17 -2 17 -7z m-620 -30 c0 -8 -117 -21 -199
-21 -77 0 -33 19 54 23 44 1 95 4 113 5 17 1 32 -2 32 -7z m-4252 -446 c-5 -5
-258 98 -258 105 0 4 42 16 93 27 l92 19 38 -74 c21 -41 37 -75 35 -77z m67
-68 c345 -140 400 -166 403 -185 4 -30 -26 -29 -98 2 -159 69 -298 127 -510
212 -129 52 -244 98 -255 103 -18 8 -16 10 15 19 19 6 37 11 40 11 3 0 185
-72 405 -162z m-3196 1 c54 -73 150 -189 212 -258 98 -109 161 -202 146 -216
-12 -12 -60 22 -140 99 -48 47 -124 110 -170 140 -99 66 -105 72 -156 168
l-41 76 23 61 c12 34 23 62 24 62 1 0 47 -60 102 -132z m2703 21 c87 -41 158
-77 158 -81 0 -10 -73 14 -182 60 -53 23 -103 42 -110 42 -7 0 -35 9 -63 19
-50 19 -50 19 -20 26 17 4 35 8 40 10 13 3 -5 10 177 -76z m4854 -236 c-3 -65
-20 -230 -37 -368 -16 -137 -32 -272 -36 -300 -6 -59 -21 -45 215 -202 160
-105 312 -227 312 -249 0 -29 -19 -19 -95 47 -44 38 -156 121 -250 184 -93 63
-181 123 -193 133 l-24 18 22 185 c12 101 30 247 40 324 10 77 21 174 25 215
14 169 31 179 21 13z m-3818 -7 l23 -12 -24 -22 -23 -22 -23 41 -23 41 23 -7
c13 -4 34 -13 47 -19z m-537 -127 c52 -28 101 -58 111 -66 9 -8 33 -53 53 -99
51 -120 63 -95 -188 -414 -37 -47 -97 -119 -134 -162 -38 -42 -97 -109 -132
-150 -86 -99 -194 -220 -262 -293 -30 -33 -113 -129 -184 -212 -103 -123 -135
-155 -164 -163 -47 -14 -303 -57 -361 -62 l-44 -3 -21 90 c-28 117 -52 179
-82 209 -13 13 -61 39 -106 56 -45 18 -177 79 -292 136 -217 108 -210 103
-547 361 -150 114 -327 272 -363 324 -19 27 -26 57 -36 142 -6 59 -10 109 -8
112 9 8 679 30 939 30 318 0 630 -20 630 -41 0 -19 53 -53 111 -70 58 -17 123
-55 136 -79 21 -37 252 -62 306 -34 12 7 54 39 93 73 172 149 438 366 449 366
1 0 44 -23 96 -51z m3554 19 c-4 -18 -24 -85 -46 -148 -22 -63 -60 -176 -86
-250 -25 -74 -52 -142 -60 -150 -13 -13 -14 -12 -8 10 4 14 17 52 30 85 27 69
78 241 99 334 l15 64 -57 -7 c-72 -8 -94 -24 -133 -89 -25 -42 -29 -46 -24
-22 3 17 21 52 39 80 30 46 40 52 127 86 52 20 98 37 102 38 5 0 6 -14 2 -31z
m-6586 -76 c64 -63 102 -92 130 -101 22 -6 43 -16 46 -22 4 -5 -2 -27 -13 -48
-16 -30 -20 -58 -20 -127 0 -49 -5 -102 -11 -117 -6 -16 -16 -91 -21 -167 -21
-288 -68 -404 -185 -455 -27 -12 -93 -36 -145 -54 -90 -29 -110 -39 -173 -84
-15 -11 -57 -27 -94 -37 -119 -31 -231 -80 -280 -122 -97 -84 -124 -87 -83
-11 22 41 37 53 125 99 65 34 127 59 175 69 112 24 116 27 150 102 25 55 52
89 143 181 62 62 128 122 147 132 19 10 54 38 77 62 54 55 62 95 66 323 2 163
1 173 -26 255 -16 47 -46 113 -68 148 -21 34 -37 62 -34 62 2 0 44 -40 94 -88z
m2631 38 c-37 -29 -258 -170 -278 -177 -16 -6 10 17 54 47 12 8 60 41 105 74
71 49 111 71 139 75 3 0 -6 -8 -20 -19z m-2724 -55 c18 -32 47 -94 64 -138
l32 -80 -12 -181 c-11 -173 -23 -235 -50 -251 -10 -6 -11 1 -7 26 3 19 9 88
13 154 8 150 -11 266 -62 368 -25 51 -34 82 -34 119 0 64 14 60 56 -17z m5197
-19 c81 -42 232 -153 320 -236 78 -72 82 -89 38 -165 -34 -59 -136 -165 -159
-165 -8 0 -54 21 -101 46 -96 52 -623 375 -619 379 2 2 84 42 183 89 214 102
236 105 338 52z m-1863 -36 c0 -5 -2 -10 -4 -10 -3 0 -8 5 -11 10 -3 6 -1 10
4 10 6 0 11 -4 11 -10z m3030 -195 c-17 -54 -35 -127 -41 -162 -17 -95 -23
-69 -9 39 8 63 21 115 42 161 17 37 32 66 34 64 2 -2 -10 -47 -26 -102z m90
13 c0 -17 -5 -82 -11 -144 -12 -118 -15 -123 -68 -124 -26 0 1 156 46 263 20
45 33 48 33 5z m-1907 -41 c18 -13 73 -45 122 -72 50 -26 149 -84 220 -128 72
-44 180 -111 240 -149 61 -37 115 -70 120 -73 7 -3 7 -7 0 -10 -5 -3 -76 -52
-158 -108 -81 -56 -183 -124 -226 -150 l-79 -48 -56 20 c-30 10 -108 48 -173
84 -65 35 -163 87 -219 114 -55 28 -118 62 -140 76 -22 13 -72 41 -112 61 -67
34 -85 50 -63 58 5 2 93 73 196 158 103 85 201 163 219 172 43 24 72 22 109
-5z m1827 -302 c0 -8 -4 -15 -10 -15 -5 0 -10 7 -10 15 0 8 5 15 10 15 6 0 10
-7 10 -15z m-40 -5 c0 -5 -8 -10 -17 -10 -15 0 -16 2 -3 10 19 12 20 12 20 0z
m240 -66 c0 -8 -7 -14 -15 -14 -17 0 -18 2 -9 24 7 18 24 12 24 -10z m-304
-11 c-10 -10 -19 5 -10 18 6 11 8 11 12 0 2 -7 1 -15 -2 -18z m62 15 c-6 -18
-28 -21 -28 -4 0 9 7 16 16 16 9 0 14 -5 12 -12z m62 -6 c0 -15 -2 -15 -10 -2
-9 13 -10 13 -10 0 0 -13 -1 -13 -10 0 -8 12 -10 12 -10 1 0 -8 -3 -12 -6 -8
-10 10 3 23 25 24 14 1 21 -4 21 -15z m38 1 c-2 -9 -8 -18 -15 -20 -9 -3 -11
11 -4 35 1 1 6 2 12 2 6 0 9 -8 7 -17z m42 2 c0 -8 -7 -15 -15 -15 -9 0 -12 6
-9 15 4 8 10 15 15 15 5 0 9 -7 9 -15z m60 0 c0 -8 -4 -15 -9 -15 -13 0 -22
16 -14 24 11 11 23 6 23 -9z m81 -2 c1 -17 2 -17 6 0 6 21 19 22 27 1 3 -8 2
-12 -3 -9 -5 3 -12 1 -16 -4 -8 -14 -35 -2 -35 15 0 20 20 17 21 -3z m-2511
-190 c96 -58 222 -132 280 -163 187 -100 223 -133 163 -145 -16 -3 -41 -13
-58 -21 -30 -14 -173 -65 -549 -195 l-199 -68 -61 25 c-80 34 -370 184 -374
194 -2 4 20 23 48 41 27 18 50 36 50 39 0 8 333 286 427 356 32 24 67 44 78
44 11 0 99 -48 195 -107z m-3631 -5 c66 -83 97 -143 105 -200 l7 -48 -30 0
c-28 0 -30 3 -36 48 -10 73 -55 191 -88 228 -16 19 -24 34 -18 34 6 0 33 -28
60 -62z m6214 -168 c38 -104 35 -106 58 33 10 61 13 67 35 67 20 0 23 -4 19
-22 -2 -13 -12 -68 -20 -123 -23 -154 -24 -155 -49 -155 -19 0 -27 14 -56 101
l-35 100 -15 -98 c-14 -88 -18 -98 -38 -101 -27 -4 -27 -2 -2 153 11 66 20
123 20 127 0 5 39 16 47 13 1 -1 18 -43 36 -95z m481 89 c14 -7 32 -26 40 -43
14 -30 14 -31 -7 -37 -15 -3 -28 2 -41 19 -45 57 -126 -4 -126 -95 0 -61 14
-83 51 -83 41 0 69 16 69 40 0 16 -7 20 -31 20 -24 0 -30 3 -25 16 3 9 6 20 6
25 0 5 25 9 56 9 55 0 56 0 50 -27 -3 -16 -8 -45 -12 -67 -5 -31 -13 -41 -40
-52 -39 -16 -97 -18 -125 -4 -29 16 -49 64 -49 117 1 121 94 203 184 162z
m-1184 -6 c0 -4 -23 -69 -51 -143 -46 -121 -73 -169 -87 -155 -10 10 111 305
124 305 8 0 14 -3 14 -7z m130 0 c0 -4 -23 -69 -51 -143 -46 -121 -73 -169
-87 -155 -10 10 111 305 124 305 8 0 14 -3 14 -7z m340 -5 c0 -7 9 -71 20
-142 11 -71 20 -133 20 -137 0 -5 -11 -9 -25 -9 -22 0 -25 4 -25 35 l0 35 -50
0 c-48 0 -51 -2 -67 -35 -12 -26 -23 -35 -41 -35 -15 0 -22 5 -19 13 2 7 33
74 67 150 60 129 65 137 92 137 16 0 28 -5 28 -12z m-791 -189 c-17 -109 -17
-109 -44 -109 -14 0 -25 1 -25 3 0 44 27 127 48 149 14 15 27 26 29 25 1 -2
-2 -32 -8 -68z m161 11 c0 -29 -1 -30 -51 -30 -43 0 -50 3 -45 16 3 9 6 19 6
24 0 5 17 11 38 13 20 2 40 4 45 5 4 1 7 -11 7 -28z m400 0 c0 -29 -1 -30 -51
-30 -43 0 -50 3 -45 16 3 9 6 19 6 24 0 5 17 11 38 13 20 2 40 4 45 5 4 1 7
-11 7 -28z m-5566 -164 c32 -13 36 -19 36 -50 0 -19 5 -38 10 -41 6 -3 10 -14
10 -24 0 -19 -21 -18 -102 4 -24 6 -33 2 -63 -28 -32 -32 -35 -40 -35 -93 0
-41 6 -69 20 -92 11 -18 20 -35 20 -38 0 -14 -129 -64 -165 -63 -22 0 -58 -2
-80 -6 -52 -9 -61 2 -67 79 -6 69 -3 67 -168 161 l-115 66 78 -2 c73 -2 80 0
100 24 34 40 78 56 235 88 81 17 149 33 152 36 8 9 95 -5 134 -21z m354 -38
c7 -7 12 -26 12 -44 0 -54 -18 -89 -55 -107 -39 -19 -41 -15 -21 45 8 24 18
60 21 81 7 38 22 46 43 25z m2268 -30 c38 -22 115 -66 172 -96 57 -30 102 -56
100 -57 -2 -2 -41 -19 -88 -38 -47 -19 -112 -47 -145 -62 -121 -55 -300 -96
-532 -122 -58 -7 -57 14 5 58 26 18 99 83 162 144 119 115 236 215 250 215 4
0 39 -19 76 -42z m-2587 -99 c17 -6 31 -15 31 -21 0 -6 -8 -7 -17 -3 -10 4
-22 9 -28 11 -5 2 -25 -25 -44 -61 l-34 -66 -23 22 c-27 25 -34 95 -12 117 15
15 85 16 127 1z m661 -25 c143 -40 261 -138 326 -270 l39 -78 0 -171 0 -170
-33 -68 c-79 -159 -250 -276 -428 -291 l-69 -6 86 23 c91 24 129 46 231 133
67 59 122 137 153 219 22 57 24 192 4 325 -15 98 -34 133 -116 211 -51 48 -85
71 -138 91 -83 33 -128 43 -151 34 -14 -5 -14 -9 -3 -22 11 -14 9 -19 -11 -34
l-23 -18 34 -15 c19 -9 43 -17 54 -19 11 -2 -38 -3 -108 -2 -71 1 -131 5 -134
8 -4 3 1 14 11 24 18 21 12 52 -10 52 -8 0 -37 -11 -64 -25 -43 -22 -76 -47
-212 -164 l-40 -35 15 30 c42 80 157 179 256 219 113 46 212 52 331 19z
m-1823 -156 c17 -21 24 -84 14 -111 -9 -24 -53 -85 -166 -232 -67 -87 -140
-209 -232 -386 -98 -187 -141 -257 -184 -293 -45 -38 -47 -25 -7 31 19 27 89
156 156 288 158 311 201 377 310 468 49 41 91 85 98 104 20 46 17 90 -6 113
-11 11 -20 22 -20 25 0 10 28 5 37 -7z m7913 -9 c0 -24 -127 -341 -201 -503
l-14 -29 -120 6 c-174 9 -215 16 -215 37 0 17 21 82 102 307 42 120 44 123 73
124 17 0 100 15 185 33 179 38 190 40 190 25z m-8596 -140 c-29 -67 -66 -142
-81 -168 -15 -25 -58 -111 -95 -190 -98 -207 -137 -281 -168 -321 -23 -29 -26
-39 -18 -60 5 -14 7 -52 3 -85 -11 -106 -8 -165 9 -184 9 -10 54 -33 100 -51
46 -19 99 -47 117 -63 l34 -28 -30 4 c-27 5 -94 26 -232 74 l-43 15 0 84 c0
46 5 104 12 128 10 39 10 48 -5 64 -9 10 -17 24 -17 31 0 16 64 141 116 228
24 40 64 118 90 175 53 118 102 209 154 288 21 30 51 83 69 118 51 101 44 71
-15 -59z m8626 51 c0 -11 -4 -20 -9 -20 -5 0 -7 9 -4 20 3 11 7 20 9 20 2 0 4
-9 4 -20z m-7418 -68 c25 -21 39 -78 28 -108 -14 -35 -24 -30 -51 29 l-24 52
-60 -1 c-175 -3 -250 -28 -271 -92 -5 -18 -18 -40 -27 -49 -16 -16 -17 -14
-17 32 0 33 8 63 23 90 26 46 46 53 202 63 123 9 175 4 197 -16z m571 -8 c26
-9 47 -20 47 -25 0 -15 -22 -10 -70 16 -52 28 -43 32 23 9z m635 2 c18 -6 48
-26 67 -45 137 -134 -1 -370 -185 -315 -57 17 -114 74 -129 131 -14 50 -14 63
4 114 37 103 141 153 243 115z m3021 -194 c24 -83 41 -174 41 -224 0 -34 4
-40 34 -54 64 -31 87 -115 43 -165 -29 -34 -74 -53 -83 -36 -4 7 -4 9 1 5 4
-4 20 -1 36 7 82 43 78 145 -7 181 -30 13 -34 18 -34 53 0 50 -23 168 -48 248
-11 35 -16 60 -11 58 5 -3 17 -36 28 -73z m-4062 -61 c56 -27 105 -56 110 -64
4 -7 21 -22 36 -32 l29 -18 -24 -13 c-35 -20 -46 -17 -98 21 -90 66 -153 87
-265 89 -99 1 -101 1 -170 -39 -96 -54 -169 -125 -205 -199 -40 -84 -68 -192
-76 -292 -6 -78 -9 -86 -35 -105 l-29 -20 0 96 c0 76 4 105 20 137 24 50 25
59 5 32 -20 -27 -18 -8 5 53 37 99 75 158 151 235 112 115 220 162 380 166 60
2 74 -2 166 -47z m-263 -132 c3 -17 6 -53 6 -79 0 -53 -1 -53 98 -66 29 -4 50
-10 45 -14 -12 -11 -132 -32 -142 -25 -5 3 -18 -6 -29 -20 -11 -14 -41 -33
-66 -41 -25 -9 -66 -34 -91 -56 -25 -22 -49 -38 -52 -34 -4 3 1 40 10 81 37
170 200 358 221 254z m1896 -23 c0 -16 -14 -36 -26 -36 -14 0 -19 22 -7 33 7
8 33 10 33 3z m144 -25 c10 -15 -5 -41 -23 -41 -26 0 -42 15 -35 33 6 18 49
23 58 8z m391 -13 l46 -12 -38 -11 c-30 -8 -39 -17 -47 -43 -8 -28 -6 -36 14
-57 30 -32 84 -34 101 -4 6 12 9 39 7 60 -4 43 -4 43 41 28 20 -7 31 -18 31
-30 0 -16 8 -19 53 -20 28 0 61 -4 72 -9 13 -5 -6 -8 -54 -7 -74 2 -74 2 -82
-27 -4 -15 -15 -36 -25 -47 -15 -17 -15 -20 14 -57 46 -57 176 -179 213 -197
23 -13 77 -19 198 -26 91 -5 195 -13 231 -19 36 -5 84 -10 108 -10 36 0 43 -3
40 -17 -4 -22 -56 -23 -351 -5 -154 9 -207 15 -240 30 -50 23 -139 100 -227
200 -46 51 -75 75 -100 82 -40 11 -84 51 -99 92 -8 22 -18 28 -56 34 -40 5
-46 9 -43 28 3 19 8 21 51 18 41 -3 51 0 63 17 18 25 20 25 79 9z m-247 -14
c2 -1 -1 -12 -7 -23 -9 -16 -18 -19 -44 -14 -41 8 -41 7 -28 32 9 16 18 19 44
14 17 -3 33 -7 35 -9z m2142 -13 c0 -5 -9 -11 -20 -14 -11 -3 -27 -22 -36 -42
-19 -46 -6 -94 34 -126 25 -20 25 -20 2 -7 -37 22 -65 78 -56 112 10 39 76
106 76 77z m-965 -143 c7 -7 -7 -9 -45 -4 -30 3 -68 6 -85 7 -27 1 -27 2 -7 7
32 10 125 2 137 -10z m-3650 -45 c-4 -16 -8 -52 -9 -80 -1 -43 -6 -58 -29 -80
-23 -24 -27 -25 -27 -9 0 39 33 181 44 188 21 14 28 8 21 -19z m4615 -106
c-46 -150 -123 -285 -229 -400 -77 -83 -221 -188 -298 -218 -36 -14 -27 -1 15
19 158 77 306 216 405 379 42 69 92 189 109 263 7 29 14 48 16 41 2 -6 -6 -44
-18 -84z m-5450 -136 c-36 -10 -86 -24 -112 -31 -26 -7 -56 -9 -65 -5 -14 5
-7 12 32 30 39 18 67 23 130 23 l80 0 -65 -17z m4575 -572 c160 -39 405 -107
546 -150 140 -44 343 -101 450 -128 l194 -48 28 -42 c35 -51 30 -71 -17 -71
-28 0 -33 3 -29 18 6 25 -15 40 -74 51 -27 6 -79 21 -115 34 -36 14 -116 39
-179 57 -63 17 -175 51 -249 75 -74 24 -162 49 -195 55 -33 7 -159 36 -280 66
-399 96 -387 95 -566 34 -77 -27 -142 -50 -145 -52 -2 -2 -7 -38 -10 -79 -4
-43 -15 -86 -26 -104 -10 -16 -18 -48 -18 -70 -1 -55 -34 -148 -57 -156 -10
-4 -79 -8 -153 -8 l-135 -1 1 138 c0 82 5 148 12 165 7 16 12 33 12 38 0 13
-37 11 -90 -5 l-45 -13 -6 -102 c-3 -57 -10 -106 -17 -113 -7 -7 -12 -19 -12
-27 0 -9 -5 -32 -10 -52 -9 -31 -15 -37 -46 -42 -62 -10 -64 -6 -59 97 2 50 9
115 15 145 5 30 7 57 4 60 -3 3 -74 -12 -157 -34 -108 -28 -172 -39 -222 -39
-69 1 -75 3 -260 95 l-189 94 -105 3 c-96 3 -109 2 -133 -17 -32 -26 -43 -67
-29 -117 6 -21 9 -39 7 -41 -6 -6 -66 115 -66 134 0 23 34 58 70 71 41 16 325
15 342 -1 16 -15 142 -78 216 -106 96 -38 274 -21 572 55 206 52 319 77 340
76 8 0 24 4 35 9 45 21 454 117 505 118 38 1 146 -21 345 -70z m245 52 c0 -8
-45 -25 -52 -19 -2 1 -13 -4 -25 -10 -12 -7 -24 -8 -27 -4 -3 5 0 9 7 10 23 1
57 11 74 21 22 13 23 13 23 2z m2480 -674 c0 -32 -1 -33 -62 -46 -124 -25
-176 -73 -214 -199 -15 -48 -60 -168 -99 -267 -128 -319 -128 -321 -122 -509
5 -171 17 -227 74 -346 17 -36 28 -82 33 -135 5 -44 13 -91 18 -105 6 -14 13
-42 17 -62 4 -26 11 -38 23 -39 10 0 28 -22 45 -56 l27 -55 -32 32 c-18 18
-57 50 -85 72 -29 22 -53 48 -53 57 0 22 -23 71 -32 71 -5 0 -8 14 -8 30 0 17
-11 47 -24 68 -13 20 -34 79 -46 129 -20 83 -22 112 -18 285 3 159 7 199 21
226 10 17 20 58 23 91 5 65 65 281 114 411 54 145 74 282 50 344 l-9 25 87 4
c48 1 129 4 180 5 l92 2 0 -33z m-4942 -77 c-7 -10 -14 -17 -17 -15 -4 4 18
35 25 35 2 0 -1 -9 -8 -20z m226 -102 c7 -11 7 -26 0 -45 -7 -22 -17 -29 -41
-31 -28 -3 -33 1 -39 23 -10 41 11 77 43 73 14 -2 31 -11 37 -20z m-143 -88
c4 0 14 -12 24 -26 16 -26 16 -26 -7 -19 -32 10 -48 33 -47 69 l1 31 11 -27
c6 -16 14 -28 18 -28z m-821 17 c0 -7 -21 -21 -47 -30 -27 -10 -84 -37 -128
-60 -95 -51 -104 -67 -104 -202 -1 -81 2 -96 29 -150 17 -33 36 -64 43 -70 23
-19 79 -119 109 -195 16 -41 44 -97 63 -125 76 -117 117 -228 135 -372 7 -49
18 -126 26 -173 8 -47 17 -168 21 -270 4 -150 2 -198 -11 -253 -9 -38 -16 -84
-16 -104 0 -48 -20 -114 -166 -547 -39 -115 -122 -291 -192 -409 -27 -45 -73
-127 -102 -182 -28 -55 -72 -122 -96 -149 -74 -80 -214 -310 -206 -339 1 -4
-1 -7 -6 -7 -4 0 -16 -20 -27 -45 -11 -25 -23 -45 -28 -45 -5 0 -7 -9 -4 -20
3 -10 0 -21 -7 -24 -6 -2 0 -5 13 -5 13 -1 22 2 18 5 -3 3 2 14 11 23 10 10
53 67 97 127 44 60 88 118 98 129 10 11 30 39 44 63 14 23 30 42 36 42 6 0 8
3 4 6 -6 6 1 16 33 52 8 10 30 42 49 72 19 30 59 87 88 127 29 39 53 75 53 78
0 13 78 78 99 83 15 3 38 39 -204 -328 -227 -343 -370 -566 -511 -798 -53 -86
-101 -161 -107 -167 -7 -7 -7 -5 -2 4 5 9 4 12 -2 8 -14 -9 -83 -129 -113
-197 -14 -30 -56 -113 -95 -185 l-70 -130 -6 65 c-7 75 5 288 22 375 16 86 63
208 111 289 43 74 77 123 272 394 237 330 516 772 631 1002 104 208 184 441
222 650 13 72 18 149 17 320 0 195 -3 239 -22 327 -52 239 -157 459 -301 631
-29 34 -58 62 -65 62 -8 0 -19 36 -30 103 -9 56 -27 147 -41 202 -14 56 -25
129 -25 166 l0 66 73 27 c83 31 286 94 305 95 6 1 12 -5 12 -12z m1008 -99 c5
-24 -38 -30 -65 -8 l-24 19 33 4 c45 5 52 3 56 -15z m349 -62 c4 -7 57 -37
116 -66 76 -37 105 -55 95 -61 -7 -5 -20 -9 -28 -9 -18 0 -224 100 -228 112
-2 4 -9 8 -16 8 -7 0 -21 7 -32 15 -17 13 -15 14 33 15 34 0 55 -5 60 -14z
m-67 -130 c397 -149 617 -241 818 -342 124 -63 248 -117 319 -140 l117 -38
670 79 c788 92 960 103 1288 87 128 -7 296 -14 373 -16 77 -3 148 -8 158 -11
19 -8 22 -53 11 -139 -6 -44 -8 -47 -33 -41 -48 10 -255 25 -451 32 -302 12
-592 6 -860 -16 -671 -57 -817 -72 -900 -93 -68 -18 -113 -22 -225 -22 -171
-1 -217 14 -345 110 -166 125 -458 256 -870 390 -129 41 -244 79 -256 84 -14
5 -29 32 -47 82 -15 40 -27 76 -27 80 0 10 32 -1 260 -86z m-1264 43 c-9 -57
-59 -151 -96 -183 -17 -14 -35 -26 -38 -26 -17 0 -72 41 -88 65 -15 24 -16 28
-1 42 14 14 17 14 38 -1 28 -19 99 -21 120 -3 33 27 54 76 58 135 1 6 4 12 7
12 4 0 4 -18 0 -41z m-96 -29 c-13 -32 -40 -41 -40 -14 0 15 41 56 49 48 2 -2
-2 -17 -9 -34z m1750 -85 c8 -2 16 -4 18 -4 1 -1 5 -1 10 -2 4 0 13 -5 20 -11
8 -7 12 -7 12 0 0 15 271 -106 300 -134 13 -13 19 -24 13 -24 -6 0 -65 23
-130 51 -65 28 -163 69 -218 91 -55 22 -102 42 -105 45 -4 5 27 0 80 -12z
m-527 -122 c3 -16 17 -75 31 -132 13 -57 30 -143 35 -190 15 -119 20 -583 7
-651 -9 -48 -11 -23 -17 180 -9 296 -45 635 -85 795 -4 18 -2 25 9 25 8 0 17
-12 20 -27z m-694 -17 c14 -17 54 -132 82 -234 24 -90 15 -143 -31 -167 -26
-13 -340 -95 -366 -95 -6 0 -24 48 -39 108 -16 59 -44 144 -63 190 -36 88 -36
109 0 116 13 2 50 9 84 15 33 6 107 26 165 45 116 38 151 43 168 22z m1837
-135 c108 -47 139 -57 130 -42 -11 17 42 13 108 -9 33 -11 98 -23 145 -27 133
-9 133 -18 4 -32 -106 -11 -126 -11 -183 4 -117 30 -315 118 -305 135 8 13 0
15 101 -29z m-1671 -471 c12 -19 45 -275 39 -302 -3 -14 -13 -29 -22 -33 -86
-34 -329 -115 -346 -115 -19 0 -25 18 -65 176 -27 109 -40 179 -34 185 5 5 73
23 151 40 78 16 159 36 179 44 46 17 90 19 98 5z m2699 -348 c-69 -23 -144
-57 -197 -89 -53 -33 -97 -53 -115 -53 -39 0 -221 -63 -295 -102 -84 -45 -110
-74 -104 -118 9 -62 24 -108 77 -230 29 -66 50 -124 46 -128 -11 -10 -59 48
-150 178 -99 140 -135 208 -138 262 -3 43 -3 43 52 70 68 35 225 81 535 159
373 94 475 112 289 51z m-3097 -249 c-3 -10 -5 -2 -5 17 0 19 2 27 5 18 2 -10
2 -26 0 -35z m5296 -115 l4 -48 -18 24 c-16 20 -17 28 -6 55 13 36 14 35 20
-31z m-1623 -353 c-47 -13 -141 -39 -210 -58 -69 -20 -183 -52 -255 -72 -144
-40 -202 -64 -250 -106 -17 -16 -44 -33 -58 -38 -46 -18 -62 -56 -62 -146 0
-73 3 -87 42 -167 39 -82 42 -107 10 -95 -15 5 -162 212 -188 264 -10 20 -25
43 -34 53 -9 10 -18 34 -22 53 -5 34 -3 37 40 65 60 38 205 83 358 110 31 6
86 24 121 41 36 16 121 42 189 56 68 15 160 35 204 44 44 10 107 18 140 18
l60 1 -85 -23z m1395 -193 c72 -11 184 -33 250 -47 117 -26 396 -114 483 -152
l44 -19 -114 -58 c-215 -111 -259 -120 -643 -126 -189 -3 -303 -11 -504 -35
-470 -55 -626 -96 -1161 -310 -118 -47 -273 -109 -345 -137 -316 -125 -549
-255 -802 -450 -57 -43 -103 -73 -103 -68 0 64 271 424 433 576 416 392 988
694 1511 799 105 21 167 30 326 49 19 2 139 3 265 1 169 -2 265 -8 360 -23z
m2156 -272 l-8 -95 -2 91 c-1 77 4 112 15 101 1 -1 -1 -45 -5 -97z m273 5 c-4
-8 -11 -15 -16 -15 -6 0 -5 6 2 15 7 8 14 15 16 15 2 0 1 -7 -2 -15z m615
-216 c295 -100 540 -185 544 -189 4 -3 -104 -50 -240 -103 -237 -93 -248 -97
-263 -79 -33 41 -88 66 -233 109 -198 58 -318 68 -386 31 -28 -15 -52 -37 -64
-61 l-19 -37 -119 3 c-65 1 -118 4 -116 7 16 36 341 500 349 500 6 0 252 -82
547 -181z m-892 49 c-2 -13 -4 -5 -4 17 -1 22 1 32 4 23 2 -10 2 -28 0 -40z
m-597 -113 c44 -33 84 -93 106 -158 9 -29 36 -95 60 -148 58 -127 66 -176 62
-393 -3 -181 -3 -183 -33 -242 -34 -65 -86 -104 -142 -104 -29 0 -33 4 -43 40
-10 38 -9 41 21 68 31 27 33 34 39 123 11 143 -5 316 -45 486 -32 133 -58 202
-132 346 -2 4 13 7 34 7 26 0 51 -9 73 -25z m1120 -224 c116 -28 290 -85 317
-104 l32 -22 -25 -13 c-23 -12 -40 -8 -182 45 l-157 58 -105 -2 -105 -2 28 25
c24 20 38 24 95 24 37 0 83 -4 102 -9z m-545 -101 c4 -6 72 -10 170 -10 204 0
305 -13 365 -47 47 -27 90 -62 90 -73 0 -4 -18 -13 -41 -20 -32 -11 -45 -11
-60 -2 -10 7 -29 12 -41 12 -13 0 -47 11 -76 25 -101 47 -146 55 -314 56 -87
0 -158 3 -158 6 0 10 42 63 50 63 5 0 12 -4 15 -10z m2449 -258 c16 -47 15
-51 -24 -232 -43 -195 -98 -433 -106 -462 -4 -14 -23 -3 -100 58 -52 42 -94
78 -94 79 0 2 14 45 31 97 38 117 184 415 210 429 11 5 27 28 35 49 9 22 20
38 24 35 5 -3 16 -27 24 -53z m-9173 -58 c114 -36 228 -79 304 -113 22 -10 57
-25 79 -32 21 -8 41 -20 43 -26 3 -7 17 -13 32 -13 27 0 122 -30 131 -41 3 -4
20 -10 39 -14 51 -11 219 -99 286 -150 55 -41 107 -65 145 -65 14 0 120 -56
120 -64 0 -2 -23 1 -52 5 -28 5 -55 6 -59 3 -4 -2 -140 52 -301 122 -293 126
-843 355 -885 368 -13 4 -23 11 -23 16 0 5 -3 15 -6 24 -9 24 19 20 147 -20z
m4852 -14 c156 -39 210 -58 362 -125 68 -30 127 -55 131 -55 5 0 19 -10 33
-23 39 -35 105 -51 209 -49 50 1 92 -2 92 -6 -1 -4 -7 -18 -15 -32 -19 -33
-19 -74 0 -90 8 -7 15 -18 15 -26 0 -19 40 -44 73 -44 23 0 31 -7 43 -35 7
-19 14 -37 14 -40 0 -3 -21 -5 -46 -5 -82 0 -201 58 -334 162 -168 132 -478
279 -743 352 l-122 34 60 4 c33 2 70 5 83 6 13 1 78 -12 145 -28z m5344 -7 c2
-6 -4 -13 -13 -17 -21 -8 -26 -3 -18 18 7 18 25 17 31 -1z m-929 -131 c11 -19
11 -50 3 -161 -6 -75 -11 -143 -11 -149 0 -28 -18 -8 -39 42 -21 52 -22 59
-11 183 6 70 13 139 17 153 6 24 6 24 17 -10 6 -19 17 -45 24 -58z m-928 31
c0 -5 -46 -90 -56 -101 -1 -2 -15 3 -31 11 -16 9 -46 19 -68 23 l-38 7 89 33
c96 35 104 37 104 27z m795 -402 c-9 -119 -18 -220 -19 -225 -1 -6 -16 10 -33
35 l-30 44 28 120 c16 66 36 158 46 205 25 121 28 71 8 -179z m-575 77 c63
-27 122 -56 131 -64 8 -8 23 -14 33 -14 31 0 214 -136 273 -203 17 -19 42 -60
57 -91 26 -55 81 -244 73 -252 -12 -13 -69 13 -111 52 -66 60 -252 155 -406
209 -127 44 -220 81 -220 88 0 19 496 -160 534 -192 18 -15 19 -15 12 23 -18
97 -47 149 -126 226 -99 96 -160 132 -324 191 -141 50 -346 144 -346 157 0 5
15 15 33 24 32 15 33 15 152 -45 66 -33 172 -82 235 -109z m830 41 c0 -14 -15
-57 -32 -95 l-33 -69 -3 55 c-2 30 0 98 3 150 l7 95 29 -55 c15 -30 28 -67 29
-81z m-9820 45 c-6 -14 -17 -36 -25 -47 -15 -21 -15 -21 -15 7 0 28 24 66 41
66 5 0 4 -12 -1 -26z m6176 -51 c-11 -11 -26 10 -26 35 l1 27 15 -28 c9 -16
13 -31 10 -34z m3774 -250 c34 -76 146 -310 246 -520 101 -210 184 -385 184
-389 0 -4 -10 -18 -21 -31 -20 -21 -21 -23 -5 -29 10 -4 27 -7 39 -8 15 -1 23
-9 25 -23 4 -28 -24 -32 -31 -5 -4 13 -5 13 -6 -4 -1 -27 -17 -40 -58 -48 -56
-12 -70 -56 -18 -56 13 0 27 -5 30 -11 10 -15 -26 -51 -43 -44 -8 3 -21 0 -28
-6 -20 -16 -43 -4 -55 28 -5 16 -22 34 -39 41 -18 8 -30 21 -30 33 0 26 23 24
35 -3 6 -12 20 -22 33 -23 25 -2 30 10 7 19 -8 3 -15 12 -15 21 0 8 7 15 15
15 8 0 15 5 15 10 0 6 -8 10 -17 10 -21 0 -63 38 -64 59 0 9 -7 -12 -14 -46
-15 -68 -41 -116 -61 -109 -6 2 -20 -2 -31 -9 -10 -8 -26 -15 -35 -15 -31 0
-19 -20 12 -20 30 0 40 -13 18 -24 -7 -4 -2 -4 12 0 55 12 55 12 53 -36 -1
-25 -6 -98 -12 -163 -8 -102 -12 -122 -32 -143 -12 -13 -28 -24 -36 -24 -7 0
-13 -4 -13 -10 0 -20 -30 -9 -34 13 -16 72 -37 227 -42 303 l-7 89 32 12 c44
16 42 55 -6 124 -42 62 -45 86 -58 437 -7 169 -6 192 8 192 26 0 27 29 2 77
-24 45 -25 52 -25 249 0 112 1 204 3 204 2 0 32 -62 67 -137z m-2112 97 c38
-20 258 -112 300 -124 26 -9 115 18 132 39 6 8 48 26 92 40 78 25 81 26 129
10 27 -9 49 -21 49 -26 0 -5 -27 -9 -61 -9 -50 0 -84 -9 -200 -56 l-140 -56
-62 30 c-97 45 -313 172 -293 172 9 0 34 -9 54 -20z m-7963 -20 c-9 -16 -18
-30 -21 -30 -2 0 2 14 11 30 9 17 18 30 21 30 2 0 -2 -13 -11 -30z m9772 -27
c12 -21 23 -49 25 -63 4 -36 -64 -247 -72 -224 -8 23 10 324 20 324 3 0 16
-17 27 -37z m1088 -2 c3 -11 15 -23 26 -26 10 -4 19 -12 19 -18 0 -7 3 -40 5
-74 2 -35 3 -63 1 -63 -5 0 -76 178 -76 190 0 18 18 11 25 -9z m-915 -93 c0
-56 -4 -98 -8 -92 -4 5 -19 32 -32 61 l-23 52 27 41 c14 22 28 40 31 40 3 0 5
-46 5 -102z m-2483 35 c22 -77 23 -198 1 -239 -24 -44 -76 -97 -88 -89 -5 3
-10 1 -10 -4 0 -16 -101 -79 -133 -83 -27 -3 -30 2 -88 137 -33 77 -67 154
-74 171 l-14 32 187 65 c103 36 190 66 194 66 4 1 15 -25 25 -56z m2428 -118
c4 -22 18 -66 31 -97 13 -32 24 -76 24 -99 0 -42 -58 -191 -86 -219 -15 -15
-15 -12 2 359 6 121 14 137 29 56z m-105 -272 c0 -103 -14 -119 -26 -30 -6 41
10 127 23 127 1 0 3 -44 3 -97z m-7970 -36 c0 -7 -7 -22 -15 -33 -12 -16 -16
-17 -24 -4 -7 10 -5 20 6 32 19 21 33 23 33 5z m5147 -59 c-3 -8 -6 -5 -6 6
-1 11 2 17 5 13 3 -3 4 -12 1 -19z m-5294 -3 c11 -5 17 -16 15 -28 -3 -18 -11
-20 -118 -21 -107 -1 -120 -3 -182 -33 -134 -63 -209 -179 -216 -334 -7 -138
33 -241 127 -334 23 -21 41 -48 41 -60 0 -11 7 -31 16 -43 22 -32 4 -27 -64
19 -139 92 -221 281 -194 446 15 89 71 201 131 261 53 54 143 105 222 127 54
15 184 15 222 0z m5284 -67 c-3 -7 -5 -2 -5 12 0 14 2 19 5 13 2 -7 2 -19 0
-25z m3005 -90 c3 -62 3 -117 0 -121 -2 -4 -13 5 -25 20 -12 15 -32 36 -44 46
-28 23 -29 39 -3 62 10 9 27 37 36 61 9 24 20 44 24 44 4 0 10 -51 12 -112z
m-8182 99 c0 -1 -9 -35 -20 -75 -11 -40 -27 -120 -36 -180 -9 -59 -24 -127
-34 -152 -9 -25 -23 -79 -29 -120 -16 -104 -37 -144 -78 -148 -17 -2 -37 -10
-43 -18 -11 -12 -4 -14 42 -14 56 0 182 -33 264 -69 78 -35 42 -35 -76 -1 -79
22 -145 33 -228 39 l-117 7 67 31 c118 55 169 156 174 338 1 62 9 134 18 165
18 65 78 199 89 200 4 0 7 -1 7 -3z m5167 -69 c-3 -7 -5 -2 -5 12 0 14 2 19 5
13 2 -7 2 -19 0 -25z m-10 -65 c-3 -10 -5 -4 -5 12 0 17 2 24 5 18 2 -7 2 -21
0 -30z m-33 -234 c-16 -112 -30 -196 -32 -187 -2 10 8 98 22 197 14 99 26 186
26 192 0 7 3 10 6 6 3 -3 -7 -97 -22 -208z m-96 -89 l0 -125 -18 135 c-10 74
-21 155 -24 180 l-5 45 24 -55 c22 -49 24 -68 23 -180z m59 -172 c-2 -13 -4
-5 -4 17 -1 22 1 32 4 23 2 -10 2 -28 0 -40z m3653 43 c0 -12 -20 -25 -27 -18
-7 7 6 27 18 27 5 0 9 -4 9 -9z m-206 -56 l-29 -26 32 15 c43 21 50 20 27 -5
-14 -16 -15 -23 -6 -26 36 -13 -12 -53 -65 -53 -19 0 -24 4 -19 16 3 9 9 32
12 53 4 26 14 42 32 53 39 22 50 4 16 -27z m-8874 21 c0 -2 -7 -7 -16 -10 -8
-3 -12 -2 -9 4 6 10 25 14 25 6z m9024 -116 c32 -12 33 -28 4 -39 -13 -5 -36
-22 -52 -38 -40 -41 -87 -35 -121 15 -14 20 -25 39 -25 43 0 3 21 2 48 -2 68
-11 70 -11 77 11 7 22 30 25 69 10z m-8974 -85 c0 -2 -13 -26 -30 -52 -16 -26
-30 -55 -30 -65 0 -11 -7 -18 -20 -18 -11 0 -20 2 -20 3 0 7 39 118 45 127 6
10 55 14 55 5z m8771 -122 c8 -22 6 -30 -10 -47 -26 -26 -31 -20 -24 32 6 48
19 54 34 15z"/>
<path d="M6337 12563 c-7 -50 7 -241 21 -275 6 -15 21 -32 34 -39 13 -6 24
-13 26 -14 2 -2 -7 -20 -21 -42 -66 -106 -88 -148 -85 -164 2 -11 36 35 88
119 l85 137 49 7 c28 4 57 3 68 -3 26 -14 23 2 -14 74 -43 83 -199 237 -239
237 -4 0 -9 -17 -12 -37z"/>
<path d="M6157 11732 c-10 -10 -29 -47 -43 -83 -14 -35 -29 -68 -33 -72 -5 -4
-43 6 -85 23 -42 16 -87 30 -100 30 -41 0 -86 -12 -80 -22 3 -5 -5 -6 -19 -3
-23 6 -29 -1 -76 -88 -48 -88 -51 -99 -51 -166 0 -56 3 -71 15 -71 11 0 15 11
15 41 0 36 2 39 15 25 18 -17 20 -42 4 -52 -8 -4 -7 -9 2 -15 10 -6 3 -9 -20
-9 -26 0 -32 -3 -27 -16 3 -9 -10 -39 -33 -72 -63 -93 -161 -267 -161 -285 0
-10 8 -17 18 -17 11 0 30 24 54 73 21 39 71 124 113 187 41 63 75 117 75 120
1 12 89 70 107 70 57 0 183 -57 183 -82 0 -66 -119 -359 -177 -436 -14 -18
-23 -36 -20 -39 28 -27 151 221 197 398 l22 87 82 -39 c45 -21 128 -53 186
-72 58 -19 337 -126 620 -237 732 -287 847 -330 875 -330 45 0 27 16 -52 46
-68 25 -78 32 -78 54 0 19 13 32 68 63 37 21 65 42 62 47 -3 5 -22 14 -43 20
-89 29 -241 92 -252 105 -32 39 40 16 353 -111 266 -107 343 -135 364 -129 23
5 -34 32 -342 156 -204 81 -383 155 -400 163 -16 8 -39 17 -50 21 -11 3 -143
56 -292 117 -176 71 -273 116 -273 125 0 8 -8 13 -17 11 -13 -2 -19 5 -21 25
-2 19 -8 27 -17 23 -8 -3 -16 3 -18 12 -3 14 -6 12 -15 -8 l-10 -25 -16 38
c-16 36 -36 50 -36 25 0 -10 -3 -9 -9 1 -12 19 -24 -3 -17 -32 3 -12 -2 -6
-12 14 -9 20 -22 35 -28 32 -6 -2 -16 8 -22 22 -7 15 -16 24 -21 20 -5 -3 -12
-1 -16 5 -11 18 -50 4 -47 -16 2 -17 0 -16 -17 4 -10 12 -27 22 -36 22 -9 0
-23 16 -32 38 l-17 37 -6 -35 -6 -35 -19 40 -19 40 -4 -32 c-5 -45 -19 -41
-27 7 -4 22 -11 40 -17 40 -6 0 -8 -12 -5 -30 5 -23 2 -32 -14 -40 -18 -10
-19 -9 -8 9 20 31 -4 75 -36 68 -16 -3 -25 0 -25 9 0 15 -63 12 -83 -5 -10 -8
-22 -8 -45 0 -28 10 -31 14 -25 37 8 33 26 85 47 135 18 42 17 45 -7 19z
m-247 -142 c0 -5 8 -10 19 -10 23 0 302 -105 426 -160 33 -15 177 -73 320
-131 143 -57 253 -105 245 -107 -19 -3 -330 102 -511 174 l-136 54 -98 -46
c-53 -25 -100 -43 -103 -40 -3 3 12 13 34 21 62 25 129 62 127 70 -1 4 -61 31
-133 60 -72 29 -142 60 -155 69 -13 9 -37 16 -53 16 -34 0 -99 -25 -126 -48
-18 -17 -18 -16 -3 14 9 17 22 36 31 43 30 25 116 40 116 21z m-175 -139 c-21
-43 -29 -39 -8 4 9 19 18 33 21 31 2 -2 -4 -18 -13 -35z m320 -130 c-6 -5 -21
-11 -35 -15 -21 -5 -20 -3 5 9 35 17 42 18 30 6z m1075 -214 c34 -14 48 -23
37 -25 -10 -2 -28 3 -40 11 -12 8 -47 21 -78 30 -31 9 -62 24 -69 32 -10 13
-1 11 41 -6 30 -11 79 -31 109 -42z"/>
<path d="M6383 11060 c-33 -13 -29 -16 20 -12 39 3 47 -1 117 -59 41 -34 104
-89 139 -121 34 -33 66 -56 70 -53 7 9 -142 150 -223 211 -58 44 -82 50 -123
34z"/>
<path d="M6220 11020 c6 -10 18 -24 28 -29 13 -8 14 -10 2 -11 -8 0 -30 9 -47
20 -18 11 -33 15 -33 9 0 -5 19 -19 43 -30 l42 -20 -60 5 c-57 5 -59 4 -30 -9
17 -8 52 -14 78 -15 33 0 46 -4 41 -11 -6 -10 -29 -9 -114 7 -22 4 -22 3 5
-10 17 -9 51 -15 78 -16 l48 0 -17 -32 c-10 -20 -20 -72 -24 -133 -7 -98 -4
-128 10 -106 5 9 13 9 33 0 68 -31 166 42 194 143 9 32 19 58 23 58 10 0 87
-86 137 -153 42 -56 88 -95 99 -84 9 9 -180 240 -239 292 -68 60 -167 110
-202 101 -26 -7 -85 17 -85 34 0 6 -5 10 -10 10 -7 0 -7 -6 0 -20z m253 -177
c20 -98 -100 -224 -168 -179 -28 18 -37 73 -11 63 26 -10 88 16 97 40 5 13 13
23 19 23 6 0 6 9 0 26 -9 22 -7 27 10 31 11 3 20 9 20 14 0 22 28 6 33 -18z"/>
<path d="M8010 10683 c-8 -4 -32 -17 -54 -30 -62 -39 -33 -47 79 -21 l99 22
-40 18 c-40 18 -59 20 -84 11z"/>
<path d="M6575 10615 c-38 -13 -95 -25 -125 -25 l-55 -2 63 -21 63 -21 89 29
c87 29 112 45 70 45 -11 0 -20 5 -20 10 0 13 -2 12 -85 -15z"/>
<path d="M7648 10503 c7 -3 16 -2 19 1 4 3 -2 6 -13 5 -11 0 -14 -3 -6 -6z"/>
<path d="M11973 8990 l-21 -50 32 0 c31 0 31 1 28 43 -6 61 -15 63 -39 7z"/>
<path d="M5126 7623 c-6 -14 -5 -15 5 -6 7 7 10 15 7 18 -3 3 -9 -2 -12 -12z"/>
<path d="M5320 2100 c0 -5 5 -10 11 -10 5 0 7 5 4 10 -3 6 -8 10 -11 10 -2 0
-4 -4 -4 -10z"/>
<path d="M16434 785 c-18 -14 -18 -14 4 -8 12 3 22 9 22 14 0 12 -3 11 -26 -6z"/>
<path d="M13546 1633 c-4 -4 -35 -6 -70 -5 -61 3 -64 2 -94 -33 -27 -31 -32
-43 -32 -89 0 -46 5 -60 33 -93 17 -21 39 -50 48 -64 l17 -24 24 23 c13 12 36
22 50 22 38 0 91 40 102 78 6 23 5 43 -8 75 -9 23 -16 52 -16 64 0 12 -3 28
-6 37 -6 16 -35 22 -48 9z"/>
<path d="M2785 5170 c8 -16 15 -31 15 -35 0 -3 -214 -5 -476 -5 -472 0 -476 0
-471 20 3 11 1 18 -4 14 -5 -3 -9 -14 -9 -25 0 -13 -7 -19 -21 -19 -12 0 -23
-8 -26 -19 -3 -11 -15 -22 -28 -25 -13 -3 -41 -28 -63 -56 -36 -45 -40 -57
-47 -125 -4 -41 -4 -88 0 -104 5 -25 2 -31 -29 -49 -39 -23 -38 -17 -42 -197
0 -33 -8 -94 -18 -135 -9 -41 -14 -86 -11 -101 7 -29 0 -39 -52 -69 -24 -14
-33 -28 -35 -47 -4 -91 13 -118 74 -109 20 3 43 9 52 12 14 5 16 -17 16 -217
0 -122 3 -219 7 -215 4 4 7 104 8 223 0 164 3 217 13 221 9 3 12 -14 12 -64 0
-37 5 -93 12 -124 9 -45 8 -81 -3 -175 -13 -113 -15 -120 -38 -125 -49 -11
-64 -49 -74 -184 -11 -148 -7 -174 33 -189 19 -7 28 -17 26 -27 -3 -8 -8 -54
-12 -102 -3 -48 -11 -94 -18 -102 -13 -17 -31 -9 -131 58 -32 21 -86 49 -119
62 -33 13 -69 33 -80 43 -39 36 -89 50 -314 91 -62 11 -136 30 -165 43 -29 13
-68 27 -88 31 -41 7 -89 40 -89 61 0 7 14 18 30 24 36 12 37 19 8 31 -22 9
-22 9 3 9 23 1 26 5 25 30 -1 17 -11 40 -22 53 -39 45 -39 51 -4 43 29 -6 31
-5 25 14 -5 18 -2 21 19 21 30 0 32 10 11 53 -20 42 -73 77 -127 84 -55 7 -63
14 -77 67 -7 28 -21 51 -38 64 -27 19 -27 21 -10 40 16 17 16 22 2 54 -10 25
-12 45 -5 66 9 32 4 68 -12 88 -5 7 -8 34 -7 61 1 27 -5 64 -13 83 -9 19 -22
50 -29 67 -10 24 -18 31 -31 27 -21 -6 -25 21 -5 29 23 9 20 147 -3 184 -17
28 -110 83 -140 83 -6 0 -20 5 -31 11 -16 8 -18 13 -9 25 14 16 19 13 -80 42
l-65 20 -3 -145 c-3 -168 7 -205 63 -223 22 -7 35 -19 39 -35 4 -14 13 -25 22
-25 8 0 12 -4 9 -10 -3 -5 3 -10 15 -10 18 0 19 -3 10 -21 -9 -16 -7 -29 9
-63 23 -46 27 -86 10 -103 -7 -7 -6 -15 5 -26 10 -10 12 -17 5 -19 -7 -2 -3
-17 10 -41 11 -20 18 -37 14 -37 -4 0 -2 -5 4 -11 6 -6 9 -17 7 -24 -3 -7 -1
-36 4 -64 7 -39 6 -57 -5 -78 -7 -14 -12 -31 -10 -37 4 -13 -11 -30 -36 -39
-12 -4 -16 -3 -11 4 7 12 -54 3 -68 -10 -10 -9 14 -76 37 -101 13 -15 14 -19
4 -15 -10 4 -15 -1 -16 -16 -2 -17 1 -18 13 -8 12 10 17 9 27 -3 22 -28 46
-29 63 -3 21 32 36 32 28 0 -5 -20 -2 -25 13 -25 11 0 28 -7 39 -15 10 -8 25
-15 33 -15 23 0 90 -34 91 -45 9 -90 -7 -125 -58 -130 -38 -3 -119 -40 -149
-68 -16 -14 -21 -27 -17 -43 4 -16 0 -25 -15 -34 -12 -6 -21 -19 -21 -29 0
-20 -17 -31 -37 -24 -7 2 -10 10 -7 18 7 18 -10 27 -52 27 -30 0 -35 3 -33 22
2 37 -1 50 -21 76 -19 25 -20 14 -20 -1652 l0 -1678 77 0 c75 0 76 0 58 20
-10 11 -26 22 -36 25 -20 7 -27 35 -9 35 7 0 8 13 4 34 -3 19 -1 42 4 52 8 15
13 12 32 -26 12 -24 25 -64 29 -89 6 -43 8 -46 39 -49 17 -2 32 -2 32 1 0 2
-9 45 -20 95 -19 91 -35 132 -72 184 -26 38 -15 88 32 143 27 31 39 57 45 90
4 30 20 66 43 99 36 50 37 53 37 142 0 99 -11 125 -63 145 -21 8 -23 14 -20
57 3 26 8 54 12 63 5 11 -2 25 -23 45 -30 28 -40 54 -21 54 23 0 60 -25 56
-37 -14 -35 134 -72 214 -54 34 8 59 7 100 -3 143 -36 152 -37 167 -24 11 9
16 9 23 -2 17 -27 23 -146 16 -330 -3 -102 -9 -294 -13 -427 l-6 -243 181 0
182 0 -5 57 c-2 32 -7 189 -10 350 l-5 292 29 16 c30 15 33 23 46 113 4 24 13
46 20 48 22 9 75 -24 75 -46 0 -15 7 -20 25 -20 17 0 25 -6 25 -17 0 -9 3 -13
7 -10 3 4 13 2 20 -5 11 -9 16 -9 23 2 13 21 30 -30 30 -89 0 -54 -46 -609
-55 -659 l-6 -32 55 0 c52 0 55 1 61 29 3 17 7 59 9 95 1 36 5 68 9 72 4 4 35
-8 69 -26 35 -18 89 -46 122 -63 l58 -30 -6 -38 -6 -39 280 0 c207 0 279 3
274 11 -5 8 3 10 27 4 19 -4 103 -10 187 -12 138 -4 153 -2 145 12 -5 9 -25
23 -43 33 -35 17 -40 28 -56 117 -5 28 -9 33 -11 19 -4 -23 -39 -61 -48 -52
-3 2 -8 33 -12 68 -5 53 -3 64 11 72 15 9 15 11 -3 26 -22 20 -26 59 -71 797
-41 674 -67 1089 -84 1355 -8 124 -18 313 -21 420 -3 107 -8 218 -10 246 -5
49 -3 52 18 52 101 -1 177 34 177 80 0 26 -17 38 -62 46 -38 7 -38 7 -38 56 0
27 -5 61 -10 76 -10 24 -14 26 -50 21 l-40 -5 0 161 0 162 107 0 c101 0 112 2
177 33 51 24 90 53 146 110 269 273 329 838 131 1230 -17 34 -34 62 -36 62 -3
0 1 -13 10 -30z m-1003 -182 c-7 -7 -12 -8 -12 -2 0 14 12 26 19 19 2 -3 -1
-11 -7 -17z m8 -213 c0 -8 -7 -15 -15 -15 -16 0 -20 12 -8 23 11 12 23 8 23
-8z m-46 -362 c-6 -59 -8 -64 -14 -36 -7 29 8 118 18 108 2 -2 0 -34 -4 -72z
m-91 -38 c-3 -9 -8 -14 -10 -11 -3 3 -2 9 2 15 9 16 15 13 8 -4z m188 -156
c-7 -66 -30 -113 -47 -96 -4 4 -2 42 5 84 7 43 12 91 11 107 0 16 3 38 6 50
14 42 33 -70 25 -145z m-126 -20 c-6 -26 -9 -29 -17 -16 -6 11 -5 24 2 38 16
29 23 17 15 -22z m-105 -4 c0 -17 -9 -29 -30 -40 -45 -23 -60 -19 -60 15 0 33
21 49 63 50 22 0 27 -4 27 -25z m38 8 c-5 -25 -28 -28 -28 -4 0 12 6 21 16 21
9 0 14 -7 12 -17z m222 -136 c0 -52 -13 -67 -57 -67 -31 0 -33 2 -33 33 1 25
8 37 33 54 48 32 57 29 57 -20z m159 -134 c28 -34 51 -65 51 -68 0 -10 -68 -5
-72 6 -2 5 -29 14 -61 18 -31 4 -59 10 -62 13 -3 3 10 17 29 32 19 14 38 35
41 47 4 11 10 19 14 17 5 -2 31 -31 60 -65z m-108 -110 c27 -10 49 -21 49 -25
0 -10 -85 -10 -157 -2 -33 4 -53 12 -53 20 0 27 92 31 161 7z m167 -40 c2 -15
-11 -37 -39 -68 -43 -46 -75 -60 -65 -27 3 9 6 37 7 62 1 25 4 49 7 53 2 4 23
7 45 5 35 -2 43 -7 45 -25z m-200 -3 l83 0 -7 -62 c-4 -35 -10 -71 -13 -80 -6
-16 -222 -190 -229 -184 -4 5 28 319 35 329 3 5 15 6 27 3 11 -3 58 -6 104 -6z
m155 -257 c-32 -29 -61 -52 -65 -53 -5 0 -8 21 -8 47 0 45 3 50 63 107 l62 60
3 -55 3 -54 -58 -52z m164 -66 c-2 -23 -3 -1 -3 48 0 50 1 68 3 42 2 -26 2
-67 0 -90z m-567 108 c0 -24 -21 -219 -26 -243 -3 -13 -9 -20 -16 -16 -14 9
-5 222 11 252 13 25 31 29 31 7z m458 -406 l-3 -130 -60 46 c-97 74 -92 62
-80 219 l10 137 65 58 65 59 3 -129 c1 -71 1 -188 0 -260z m-158 337 c0 -53
-7 -63 -92 -127 -77 -59 -80 -60 -103 -45 -14 9 -25 24 -25 34 0 15 192 169
213 171 4 1 7 -14 7 -33z m-20 -207 c-6 -57 -13 -105 -15 -107 -4 -5 -115 99
-115 109 0 10 131 111 137 105 2 -2 -1 -50 -7 -107z m289 -102 c0 -111 -4
-211 -9 -222 -5 -12 -9 71 -9 208 -1 150 2 226 9 222 6 -4 10 -83 9 -208z
m-479 99 c0 -8 -7 -19 -15 -26 -13 -10 -15 -9 -15 12 0 14 3 28 6 31 9 9 24
-2 24 -17z m100 -99 l72 -68 -7 -141 c-8 -154 -11 -161 -81 -198 -26 -15 -28
-14 -80 45 l-54 60 1 85 c0 151 14 238 40 266 12 13 26 23 30 22 4 -2 39 -34
79 -71z m444 18 c-4 -8 -10 -15 -15 -15 -5 0 -9 7 -9 15 0 8 7 15 15 15 9 0
12 -6 9 -15z m-267 -166 c29 -23 52 -45 51 -48 -5 -11 -115 -111 -121 -111 -4
0 -7 24 -7 54 0 62 10 146 18 146 3 0 29 -19 59 -41z m93 -336 c0 -305 -10
-384 -39 -302 -6 17 -37 58 -68 91 -32 32 -61 67 -65 76 -4 9 -7 60 -7 111
l-1 95 83 77 c45 43 85 78 90 79 4 0 7 -102 7 -227z m127 -138 c-2 -15 -7 -11
-20 19 -20 45 -22 128 -4 156 10 18 13 9 20 -67 4 -49 6 -97 4 -108z m-366
102 c-16 -16 -26 20 -10 40 13 15 14 14 17 -7 2 -12 -1 -27 -7 -33z m373 -230
c8 -38 8 -121 0 -141 -3 -9 -12 -16 -19 -16 -20 0 -25 24 -25 121 0 85 1 89
19 77 11 -6 22 -25 25 -41z m23 -450 c6 -106 15 -232 19 -280 l7 -88 -34 14
c-32 13 -34 17 -40 73 -13 119 -10 298 8 391 9 51 19 90 22 87 3 -3 11 -92 18
-197z m-6 -394 c35 -21 36 -25 44 -165 4 -73 3 -108 -4 -108 -6 0 -24 -25 -39
-56 l-29 -57 -6 99 c-9 124 -9 304 -1 304 3 0 19 -8 35 -17z m-160 -240 c1
-94 -1 -146 -6 -151 -2 -2 -12 1 -23 7 -26 14 -41 89 -21 105 8 6 13 24 11 40
-4 31 15 86 29 86 5 0 9 -39 10 -87z m220 -200 c0 -27 4 -100 8 -163 4 -63 6
-119 3 -123 -2 -4 -26 11 -53 34 -44 36 -49 45 -49 81 0 25 14 71 35 118 19
43 35 83 35 89 0 6 5 11 10 11 6 0 10 -21 11 -47z m-251 12 c30 -15 30 -17 30
-100 0 -47 -3 -85 -7 -85 -18 0 -102 66 -107 84 -4 17 37 116 50 116 3 0 18
-7 34 -15z m-64 -243 c-19 -19 -40 -5 -30 21 5 13 10 14 26 6 19 -10 19 -12 4
-27z m94 -131 c0 -39 -7 -58 -37 -103 -49 -72 -275 -349 -280 -344 -3 2 -1 48
2 103 l7 98 151 147 c84 82 153 148 155 148 1 0 2 -22 2 -49z m185 27 c14 -6
25 -17 25 -25 0 -7 6 -13 14 -13 17 0 26 -51 26 -145 l0 -71 -53 -52 -54 -53
-6 83 c-4 46 -7 129 -7 186 0 110 2 114 55 90z m-562 -104 c26 5 27 4 27 -33
0 -33 -10 -50 -66 -117 -36 -44 -74 -97 -85 -119 -11 -22 -44 -67 -74 -100
l-54 -60 -1 40 c0 51 29 364 36 388 6 20 53 23 73 5 10 -11 16 -9 29 7 16 21
16 21 51 2 22 -11 47 -16 64 -13z m377 -324 l0 -300 -22 1 c-13 0 -52 8 -87
17 -59 16 -66 20 -77 52 -12 34 -13 34 -13 8 -1 -30 -8 -32 -61 -22 -22 5 -35
15 -42 33 -6 14 -15 36 -21 48 -5 12 -7 32 -3 45 3 13 58 86 122 163 64 77
134 166 157 198 22 31 42 57 44 57 2 0 3 -135 3 -300z m-365 38 c-3 -24 -7
-73 -10 -109 -4 -46 -13 -73 -28 -92 l-22 -28 -62 23 c-35 13 -63 26 -63 30 0
4 24 35 53 69 28 34 68 81 87 105 19 24 38 43 42 44 4 0 6 -19 3 -42z m639
-124 l7 -132 -25 -6 c-30 -7 -33 -21 -9 -35 16 -9 15 -11 -7 -33 -20 -18 -33
-22 -60 -18 l-35 5 -3 131 -3 131 58 60 c44 45 59 55 64 44 3 -9 9 -75 13
-147z m-9 -234 c-3 -5 -10 -10 -16 -10 -5 0 -9 5 -9 10 0 6 7 10 16 10 8 0 12
-4 9 -10z"/>
<path d="M0 4005 l0 -172 25 5 c24 4 36 22 14 22 -19 0 -4 44 19 56 34 17 37
22 17 44 -24 26 -14 46 29 54 30 6 36 11 36 31 0 21 -5 25 -29 25 -23 0 -30 6
-37 28 -4 15 -8 32 -9 37 -1 20 -15 33 -40 37 l-25 5 0 -172z"/>
<path d="M0 3790 c0 -17 5 -19 33 -13 39 7 41 9 32 22 -3 6 -19 11 -36 11 -22
0 -29 -5 -29 -20z"/>
<path d="M0 3726 c0 -9 5 -16 10 -16 6 0 10 4 10 9 0 6 -4 13 -10 16 -5 3 -10
-1 -10 -9z"/>
<path d="M40 3582 c0 -4 6 -17 14 -28 14 -18 16 -18 32 -2 10 10 16 19 13 21
-10 9 -59 17 -59 9z"/>
<path d="M116 3565 c-3 -8 -1 -15 4 -15 6 0 10 7 10 15 0 8 -2 15 -4 15 -2 0
-6 -7 -10 -15z"/>
<path d="M16018 3210 c-18 -79 -15 -89 45 -195 13 -22 38 -68 57 -102 19 -35
37 -63 41 -63 13 0 19 79 19 248 0 172 0 172 -22 172 -13 0 -46 3 -74 6 l-50
6 -16 -72z"/>
<path d="M17113 2900 c0 -25 2 -35 4 -22 2 12 2 32 0 45 -2 12 -4 2 -4 -23z"/>
<path d="M16384 2785 c9 -177 33 -432 47 -495 6 -28 35 -101 64 -163 135 -285
298 -909 350 -1342 11 -89 13 -109 19 -155 3 -25 8 -79 12 -120 4 -41 8 -93
11 -115 2 -22 5 -114 7 -205 2 -91 4 -171 5 -177 1 -10 30 -13 111 -13 l110 0
0 548 0 549 -83 174 c-104 215 -139 302 -268 649 -164 444 -369 974 -380 985
-8 7 -9 -28 -5 -120z"/>
<path d="M13650 2241 c-47 -15 -120 -44 -162 -64 -42 -20 -81 -37 -86 -37 -5
0 -16 -37 -26 -82 -26 -128 -66 -259 -85 -288 -21 -29 -36 -70 -25 -70 4 0 29
14 56 31 60 36 276 139 293 139 29 0 119 50 121 67 3 16 7 54 19 173 5 55 15
123 21 143 7 24 -23 21 -126 -12z"/>
<path d="M10864 1735 c-4 -9 16 -45 47 -87 30 -40 157 -212 284 -383 127 -170
311 -419 410 -553 166 -225 182 -242 205 -237 14 4 26 8 28 10 2 2 -207 287
-463 634 -464 627 -494 662 -511 616z"/>
<path d="M9926 1083 c-263 -356 -480 -652 -483 -659 -5 -13 21 -26 40 -18 6 3
64 76 128 162 233 314 416 562 584 787 265 357 248 331 235 355 -6 11 -14 20
-18 20 -4 0 -222 -291 -486 -647z"/>
<path d="M10585 1641 c-17 -10 -70 -72 -118 -137 -47 -65 -244 -332 -437 -593
-318 -430 -350 -477 -350 -512 0 -33 5 -41 33 -56 30 -17 89 -18 942 -18 855
0 913 1 938 18 22 14 27 25 27 60 0 40 -23 73 -433 627 -265 359 -445 593
-466 607 -41 28 -95 30 -136 4z m109 -62 c23 -18 164 -207 713 -951 90 -121
161 -224 158 -228 -17 -28 -130 -31 -945 -28 -720 3 -839 5 -862 18 l-26 15
170 230 c93 127 206 280 251 340 316 428 457 613 468 618 27 11 47 7 73 -14z"/>
<path d="M5873 940 c3 -10 0 -21 -6 -23 -6 -2 -7 -11 -2 -23 7 -18 8 -17 15 6
12 38 11 60 -1 60 -6 0 -9 -9 -6 -20z"/>
<path d="M5847 860 c-10 -37 -8 -60 4 -60 6 0 9 6 6 14 -3 8 -1 16 6 19 8 2 9
10 1 27 l-11 24 -6 -24z"/>
<path d="M476 338 c-5 -15 -26 -265 -26 -309 0 -28 2 -29 48 -29 l49 0 -5 138
c-5 175 -11 206 -40 210 -12 2 -24 -3 -26 -10z"/>
<path d="M2490 254 c0 -29 2 -30 32 -26 29 4 30 6 11 13 -12 4 -26 16 -32 26
-9 15 -10 14 -11 -13z"/>
<path d="M9573 185 c-3 -9 -2 -19 2 -23 3 -4 495 -8 1091 -10 1129 -3 1111 -3
1072 36 -9 9 -264 12 -1085 12 -958 0 -1074 -2 -1080 -15z"/>
<path d="M2991 145 c-18 -8 -41 -15 -50 -15 -9 0 -23 -12 -32 -28 -11 -20 -31
-32 -73 -44 -31 -10 -64 -18 -72 -18 -9 0 -27 -9 -41 -20 l-26 -20 302 0 301
0 0 45 c0 60 -20 78 -110 99 -89 20 -154 20 -199 1z"/>
<path d="M13463 50 c0 -30 2 -43 4 -28 2 16 2 40 0 55 -2 16 -4 3 -4 -27z"/>
<path d="M341 78 c0 -10 -5 -18 -11 -18 -5 0 -10 -7 -10 -15 0 -9 -7 -18 -15
-21 -27 -11 -16 -24 20 -24 38 0 40 6 25 65 -4 17 -8 22 -9 13z"/>
</g>
</svg>
